  0
SECTION
  2
HEADER
  9
$ACADVER
  1
AC1024
  9
$ACADMAINTVER
 70
6
  9
$DWGCODEPAGE
  3
ANSI_1252
  9
$LASTSAVEDBY
  1
ezdxf
  9
$INSBASE
 10
0.0
 20
0.0
 30
0.0
  9
$EXTMIN
 10
1e+20
 20
1e+20
 30
1e+20
  9
$EXTMAX
 10
-1e+20
 20
-1e+20
 30
-1e+20
  9
$LIMMIN
 10
0.0
 20
0.0
  9
$LIMMAX
 10
420.0
 20
297.0
  9
$ORTHOMODE
 70
0
  9
$REGENMODE
 70
1
  9
$FILLMODE
 70
1
  9
$QTEXTMODE
 70
0
  9
$MIRRTEXT
 70
1
  9
$LTSCALE
 40
8.333333333333334
  9
$ATTMODE
 70
1
  9
$TEXTSIZE
 40
2.5
  9
$TRACEWID
 40
1.0
  9
$TEXTSTYLE
  7
OpenSans
  9
$CLAYER
  8
0
  9
$CELTYPE
  6
ByLayer
  9
$CECOLOR
 62
256
  9
$CELTSCALE
 40
1.0
  9
$DISPSILH
 70
0
  9
$DIMSCALE
 40
1.0
  9
$DIMASZ
 40
0.175
  9
$DIMEXO
 40
0.125
  9
$DIMDLI
 40
3.75
  9
$DIMRND
 40
0.0
  9
$DIMDLE
 40
0.0
  9
$DIMEXE
 40
0.375
  9
$DIMTP
 40
0.0
  9
$DIMTM
 40
0.0
  9
$DIMTXT
 40
0.25
  9
$DIMCEN
 40
2.5
  9
$DIMTSZ
 40
0.0
  9
$DIMTOL
 70
0
  9
$DIMLIM
 70
0
  9
$DIMTIH
 70
0
  9
$DIMTOH
 70
0
  9
$DIMSE1
 70
0
  9
$DIMSE2
 70
0
  9
$DIMTAD
 70
1
  9
$DIMZIN
 70
12
  9
$DIMBLK
  1
ARCHTICK
  9
$DIMASO
 70
1
  9
$DIMSHO
 70
1
  9
$DIMPOST
  1

  9
$DIMAPOST
  1

  9
$DIMALT
 70
0
  9
$DIMALTD
 70
3
  9
$DIMALTF
 40
0.03937007874
  9
$DIMLFAC
 40
100.0
  9
$DIMTOFL
 70
1
  9
$DIMTVP
 40
0.0
  9
$DIMTIX
 70
0
  9
$DIMSOXD
 70
0
  9
$DIMSAH
 70
0
  9
$DIMBLK1
  1

  9
$DIMBLK2
  1

  9
$DIMSTYLE
  2
EZDXF
  9
$DIMCLRD
 70
0
  9
$DIMCLRE
 70
0
  9
$DIMCLRT
 70
0
  9
$DIMTFAC
 40
0.5
  9
$DIMGAP
 40
0.1
  9
$DIMJUST
 70
0
  9
$DIMSD1
 70
0
  9
$DIMSD2
 70
0
  9
$DIMTOLJ
 70
0
  9
$DIMTZIN
 70
8
  9
$DIMALTZ
 70
0
  9
$DIMALTTZ
 70
0
  9
$DIMUPT
 70
1
  9
$DIMDEC
 70
2
  9
$DIMTDEC
 70
2
  9
$DIMALTU
 70
2
  9
$DIMALTTD
 70
3
  9
$DIMTXSTY
  7
OpenSansCondensed-Light
  9
$DIMAUNIT
 70
0
  9
$DIMADEC
 70
2
  9
$DIMALTRND
 40
0.0
  9
$DIMAZIN
 70
3
  9
$DIMDSEP
 70
46
  9
$DIMATFIT
 70
3
  9
$DIMFRAC
 70
0
  9
$DIMLDRBLK
  1

  9
$DIMLUNIT
 70
2
  9
$DIMLWD
 70
-2
  9
$DIMLWE
 70
-2
  9
$DIMTMOVE
 70
2
  9
$DIMFXL
 40
1.0
  9
$DIMFXLON
 70
0
  9
$DIMJOGANG
 40
0.785398163397
  9
$DIMTFILL
 70
0
  9
$DIMTFILLCLR
 70
0
  9
$DIMARCSYM
 70
0
  9
$DIMLTYPE
  6

  9
$DIMLTEX1
  6

  9
$DIMLTEX2
  6

  9
$DIMTXTDIRECTION
 70
0
  9
$LUNITS
 70
2
  9
$LUPREC
 70
4
  9
$SKETCHINC
 40
1.0
  9
$FILLETRAD
 40
10.0
  9
$AUNITS
 70
0
  9
$AUPREC
 70
2
  9
$MENU
  1
.
  9
$ELEVATION
 40
0.0
  9
$PELEVATION
 40
0.0
  9
$THICKNESS
 40
0.0
  9
$LIMCHECK
 70
0
  9
$CHAMFERA
 40
0.0
  9
$CHAMFERB
 40
0.0
  9
$CHAMFERC
 40
0.0
  9
$CHAMFERD
 40
0.0
  9
$SKPOLY
 70
0
  9
$TDCREATE
 40
2461286.68599537
  9
$TDUCREATE
 40
2458532.153996898
  9
$TDUPDATE
 40
2461286.68599537
  9
$TDUUPDATE
 40
2458532.1544311
  9
$TDINDWG
 40
0.0
  9
$TDUSRTIMER
 40
0.0
  9
$USRTIMER
 70
1
  9
$ANGBASE
 50
0.0
  9
$ANGDIR
 70
0
  9
$PDMODE
 70
0
  9
$PDSIZE
 40
0.0
  9
$PLINEWID
 40
0.0
  9
$SPLFRAME
 70
0
  9
$SPLINETYPE
 70
6
  9
$SPLINESEGS
 70
8
  9
$HANDSEED
  5
1B5
  9
$SURFTAB1
 70
6
  9
$SURFTAB2
 70
6
  9
$SURFTYPE
 70
6
  9
$SURFU
 70
6
  9
$SURFV
 70
6
  9
$UCSBASE
  2

  9
$UCSNAME
  2

  9
$UCSORG
 10
0.0
 20
0.0
 30
0.0
  9
$UCSXDIR
 10
1.0
 20
0.0
 30
0.0
  9
$UCSYDIR
 10
0.0
 20
1.0
 30
0.0
  9
$UCSORTHOREF
  2

  9
$UCSORTHOVIEW
 70
0
  9
$UCSORGTOP
 10
0.0
 20
0.0
 30
0.0
  9
$UCSORGBOTTOM
 10
0.0
 20
0.0
 30
0.0
  9
$UCSORGLEFT
 10
0.0
 20
0.0
 30
0.0
  9
$UCSORGRIGHT
 10
0.0
 20
0.0
 30
0.0
  9
$UCSORGFRONT
 10
0.0
 20
0.0
 30
0.0
  9
$UCSORGBACK
 10
0.0
 20
0.0
 30
0.0
  9
$PUCSBASE
  2

  9
$PUCSNAME
  2

  9
$PUCSORG
 10
0.0
 20
0.0
 30
0.0
  9
$PUCSXDIR
 10
1.0
 20
0.0
 30
0.0
  9
$PUCSYDIR
 10
0.0
 20
1.0
 30
0.0
  9
$PUCSORTHOREF
  2

  9
$PUCSORTHOVIEW
 70
0
  9
$PUCSORGTOP
 10
0.0
 20
0.0
 30
0.0
  9
$PUCSORGBOTTOM
 10
0.0
 20
0.0
 30
0.0
  9
$PUCSORGLEFT
 10
0.0
 20
0.0
 30
0.0
  9
$PUCSORGRIGHT
 10
0.0
 20
0.0
 30
0.0
  9
$PUCSORGFRONT
 10
0.0
 20
0.0
 30
0.0
  9
$PUCSORGBACK
 10
0.0
 20
0.0
 30
0.0
  9
$USERI1
 70
0
  9
$USERI2
 70
0
  9
$USERI3
 70
0
  9
$USERI4
 70
0
  9
$USERI5
 70
0
  9
$USERR1
 40
0.0
  9
$USERR2
 40
0.0
  9
$USERR3
 40
0.0
  9
$USERR4
 40
0.0
  9
$USERR5
 40
0.0
  9
$WORLDVIEW
 70
1
  9
$SHADEDGE
 70
3
  9
$SHADEDIF
 70
70
  9
$TILEMODE
 70
1
  9
$MAXACTVP
 70
64
  9
$PINSBASE
 10
0.0
 20
0.0
 30
0.0
  9
$PLIMCHECK
 70
0
  9
$PEXTMIN
 10
1e+20
 20
1e+20
 30
1e+20
  9
$PEXTMAX
 10
-1e+20
 20
-1e+20
 30
-1e+20
  9
$PLIMMIN
 10
0.0
 20
0.0
  9
$PLIMMAX
 10
420.0
 20
297.0
  9
$UNITMODE
 70
0
  9
$VISRETAIN
 70
1
  9
$PLINEGEN
 70
0
  9
$PSLTSCALE
 70
1
  9
$TREEDEPTH
 70
3020
  9
$CMLSTYLE
  2
Standard
  9
$CMLJUST
 70
0
  9
$CMLSCALE
 40
20.0
  9
$PROXYGRAPHICS
 70
1
  9
$MEASUREMENT
 70
1
  9
$CELWEIGHT
370
-1
  9
$ENDCAPS
280
0
  9
$JOINSTYLE
280
0
  9
$LWDISPLAY
290
1
  9
$INSUNITS
 70
4
  9
$HYPERLINKBASE
  1

  9
$STYLESHEET
  1

  9
$XEDIT
290
1
  9
$CEPSNTYPE
380
0
  9
$PSTYLEMODE
290
1
  9
$FINGERPRINTGUID
  2
{295B69CA-2096-4D11-A89C-4DA93AC4E8BA}
  9
$VERSIONGUID
  2
{969C450F-F84D-4A1F-94A0-8A9EE09D04BF}
  9
$EXTNAMES
290
1
  9
$PSVPSCALE
 40
0.0
  9
$OLESTARTUP
290
0
  9
$SORTENTS
280
127
  9
$INDEXCTL
280
0
  9
$HIDETEXT
280
1
  9
$XCLIPFRAME
280
1
  9
$HALOGAP
280
0
  9
$OBSCOLOR
 70
257
  9
$OBSLTYPE
280
0
  9
$INTERSECTIONDISPLAY
280
0
  9
$INTERSECTIONCOLOR
 70
257
  9
$DIMASSOC
280
2
  9
$PROJECTNAME
  1

  9
$CAMERADISPLAY
290
0
  9
$LENSLENGTH
 40
50.0
  9
$CAMERAHEIGHT
 40
0.0
  9
$STEPSPERSEC
 40
24.0
  9
$STEPSIZE
 40
100.0
  9
$3DDWFPREC
 40
2.0
  9
$PSOLWIDTH
 40
0.005
  9
$PSOLHEIGHT
 40
0.08
  9
$LOFTANG1
 40
1.570796326795
  9
$LOFTANG2
 40
1.570796326795
  9
$LOFTMAG1
 40
0.0
  9
$LOFTMAG2
 40
0.0
  9
$LOFTPARAM
 70
7
  9
$LOFTNORMALS
280
1
  9
$LATITUDE
 40
37.795
  9
$LONGITUDE
 40
-122.394
  9
$NORTHDIRECTION
 40
0.0
  9
$TIMEZONE
 70
-8000
  9
$LIGHTGLYPHDISPLAY
280
1
  9
$TILEMODELIGHTSYNCH
280
1
  9
$CMATERIAL
347
20
  9
$SOLIDHIST
280
0
  9
$SHOWHIST
280
1
  9
$DWFFRAME
280
2
  9
$DGNFRAME
280
2
  9
$REALWORLDSCALE
290
1
  9
$INTERFERECOLOR
 62
256
  9
$CSHADOW
280
0
  9
$SHADOWPLANELOCATION
 40
0.0
  0
ENDSEC
  0
SECTION
  2
CLASSES
  0
CLASS
  1
ACDBDICTIONARYWDFLT
  2
AcDbDictionaryWithDefault
  3
ObjectDBX Classes
 90
0
 91
0
280
0
281
0
  0
CLASS
  1
SUN
  2
AcDbSun
  3
SCENEOE
 90
1153
 91
0
280
0
281
0
  0
CLASS
  1
VISUALSTYLE
  2
AcDbVisualStyle
  3
ObjectDBX Classes
 90
4095
 91
0
280
0
281
0
  0
CLASS
  1
MATERIAL
  2
AcDbMaterial
  3
ObjectDBX Classes
 90
1153
 91
0
280
0
281
0
  0
CLASS
  1
SCALE
  2
AcDbScale
  3
ObjectDBX Classes
 90
1153
 91
0
280
0
281
0
  0
CLASS
  1
TABLESTYLE
  2
AcDbTableStyle
  3
ObjectDBX Classes
 90
4095
 91
0
280
0
281
0
  0
CLASS
  1
MLEADERSTYLE
  2
AcDbMLeaderStyle
  3
ACDB_MLEADERSTYLE_CLASS
 90
4095
 91
0
280
0
281
0
  0
CLASS
  1
DICTIONARYVAR
  2
AcDbDictionaryVar
  3
ObjectDBX Classes
 90
0
 91
0
280
0
281
0
  0
CLASS
  1
CELLSTYLEMAP
  2
AcDbCellStyleMap
  3
ObjectDBX Classes
 90
1152
 91
0
280
0
281
0
  0
CLASS
  1
MENTALRAYRENDERSETTINGS
  2
AcDbMentalRayRenderSettings
  3
SCENEOE
 90
1024
 91
0
280
0
281
0
  0
CLASS
  1
ACDBDETAILVIEWSTYLE
  2
AcDbDetailViewStyle
  3
ObjectDBX Classes
 90
1025
 91
0
280
0
281
0
  0
CLASS
  1
ACDBSECTIONVIEWSTYLE
  2
AcDbSectionViewStyle
  3
ObjectDBX Classes
 90
1025
 91
0
280
0
281
0
  0
CLASS
  1
RASTERVARIABLES
  2
AcDbRasterVariables
  3
ISM
 90
0
 91
0
280
0
281
0
  0
CLASS
  1
ACDBPLACEHOLDER
  2
AcDbPlaceHolder
  3
ObjectDBX Classes
 90
0
 91
0
280
0
281
0
  0
CLASS
  1
LAYOUT
  2
AcDbLayout
  3
ObjectDBX Classes
 90
0
 91
0
280
0
281
0
  0
ENDSEC
  0
SECTION
  2
TABLES
  0
TABLE
  2
VPORT
  5
8
330
0
100
AcDbSymbolTable
 70
1
  0
VPORT
  5
23
330
8
100
AcDbSymbolTableRecord
100
AcDbViewportTableRecord
  2
*Active
 70
0
 10
0.0
 20
0.0
 11
1.0
 21
1.0
 12
0.0
 22
0.0
 13
0.0
 23
0.0
 14
0.5
 24
0.5
 15
0.5
 25
0.5
 16
0.0
 26
0.0
 36
1.0
 17
0.0
 27
0.0
 37
0.0
 40
1000.0
 41
1.34
 42
50.0
 43
0.0
 44
0.0
 50
0.0
 51
0.0
 71
0
 72
1000
 73
1
 74
3
 75
0
 76
0
 77
0
 78
0
281
0
 65
0
146
0.0
  0
ENDTAB
  0
TABLE
  2
LTYPE
  5
2
330
0
100
AcDbSymbolTable
 70
21
  0
LTYPE
  5
24
330
2
100
AcDbSymbolTableRecord
100
AcDbLinetypeTableRecord
  2
ByBlock
 70
0
  3

 72
65
 73
0
 40
0.0
  0
LTYPE
  5
25
330
2
100
AcDbSymbolTableRecord
100
AcDbLinetypeTableRecord
  2
ByLayer
 70
0
  3

 72
65
 73
0
 40
0.0
  0
LTYPE
  5
26
330
2
100
AcDbSymbolTableRecord
100
AcDbLinetypeTableRecord
  2
Continuous
 70
0
  3

 72
65
 73
0
 40
0.0
  0
LTYPE
  5
2F
330
2
100
AcDbSymbolTableRecord
100
AcDbLinetypeTableRecord
  2
CENTER
 70
0
  3
Center ____ _ ____ _ ____ _ ____ _ ____ _ ____
 72
65
 73
4
 40
5.08
 49
3.175
 74
0
 49
-0.635
 74
0
 49
0.635
 74
0
 49
-0.635
 74
0
  0
LTYPE
  5
30
330
2
100
AcDbSymbolTableRecord
100
AcDbLinetypeTableRecord
  2
CENTERX2
 70
0
  3
Center (2x) ________  __  ________  __  ________
 72
65
 73
4
 40
8.89
 49
6.35
 74
0
 49
-0.635
 74
0
 49
1.27
 74
0
 49
-0.635
 74
0
  0
LTYPE
  5
31
330
2
100
AcDbSymbolTableRecord
100
AcDbLinetypeTableRecord
  2
CENTER2
 70
0
  3
Center (.5x) ____ _ ____ _ ____ _ ____ _ ____
 72
65
 73
4
 40
2.54
 49
1.587
 74
0
 49
-0.318
 74
0
 49
0.318
 74
0
 49
-0.318
 74
0
  0
LTYPE
  5
32
330
2
100
AcDbSymbolTableRecord
100
AcDbLinetypeTableRecord
  2
DASHED
 70
0
  3
Dashed __ __ __ __ __ __ __ __ __ __ __ __ __ _
 72
65
 73
2
 40
1.524
 49
1.27
 74
0
 49
-0.254
 74
0
  0
LTYPE
  5
33
330
2
100
AcDbSymbolTableRecord
100
AcDbLinetypeTableRecord
  2
DASHEDX2
 70
0
  3
Dashed (2x) ____  ____  ____  ____  ____  ____
 72
65
 73
2
 40
3.048
 49
2.54
 74
0
 49
-0.508
 74
0
  0
LTYPE
  5
34
330
2
100
AcDbSymbolTableRecord
100
AcDbLinetypeTableRecord
  2
DASHED2
 70
0
  3
Dashed (.5x) _ _ _ _ _ _ _ _ _ _ _ _ _ _
 72
65
 73
2
 40
0.762
 49
0.635
 74
0
 49
-0.127
 74
0
  0
LTYPE
  5
35
330
2
100
AcDbSymbolTableRecord
100
AcDbLinetypeTableRecord
  2
PHANTOM
 70
0
  3
Phantom ______  __  __  ______  __  __  ______
 72
65
 73
6
 40
6.35
 49
3.175
 74
0
 49
-0.635
 74
0
 49
0.635
 74
0
 49
-0.635
 74
0
 49
0.635
 74
0
 49
-0.635
 74
0
  0
LTYPE
  5
36
330
2
100
AcDbSymbolTableRecord
100
AcDbLinetypeTableRecord
  2
PHANTOMX2
 70
0
  3
Phantom (2x)____________    ____    ____    ____________
 72
65
 73
6
 40
10.795
 49
6.35
 74
0
 49
-0.635
 74
0
 49
1.27
 74
0
 49
-0.635
 74
0
 49
1.27
 74
0
 49
-0.635
 74
0
  0
LTYPE
  5
37
330
2
100
AcDbSymbolTableRecord
100
AcDbLinetypeTableRecord
  2
PHANTOM2
 70
0
  3
Phantom (.5x) ___ _ _ ___ _ _ ___ _ _ ___ _ _ ___
 72
65
 73
6
 40
3.175
 49
1.587
 74
0
 49
-0.318
 74
0
 49
0.318
 74
0
 49
-0.318
 74
0
 49
0.318
 74
0
 49
-0.318
 74
0
  0
LTYPE
  5
38
330
2
100
AcDbSymbolTableRecord
100
AcDbLinetypeTableRecord
  2
DASHDOT
 70
0
  3
Dash dot __ . __ . __ . __ . __ . __ . __ . __
 72
65
 73
4
 40
3.556
 49
2.54
 74
0
 49
-0.508
 74
0
 49
0.0
 74
0
 49
-0.508
 74
0
  0
LTYPE
  5
39
330
2
100
AcDbSymbolTableRecord
100
AcDbLinetypeTableRecord
  2
DASHDOTX2
 70
0
  3
Dash dot (2x) ____  .  ____  .  ____  .  ____
 72
65
 73
4
 40
6.096
 49
5.08
 74
0
 49
-0.508
 74
0
 49
0.0
 74
0
 49
-0.508
 74
0
  0
LTYPE
  5
3A
330
2
100
AcDbSymbolTableRecord
100
AcDbLinetypeTableRecord
  2
DASHDOT2
 70
0
  3
Dash dot (.5x) _ . _ . _ . _ . _ . _ . _ . _
 72
65
 73
4
 40
1.778
 49
1.27
 74
0
 49
-0.254
 74
0
 49
0.0
 74
0
 49
-0.254
 74
0
  0
LTYPE
  5
3B
330
2
100
AcDbSymbolTableRecord
100
AcDbLinetypeTableRecord
  2
DOT
 70
0
  3
Dot .  .  .  .  .  .  .  .  .  .  .  .  .  .  .  .
 72
65
 73
2
 40
0.508
 49
0.0
 74
0
 49
-0.508
 74
0
  0
LTYPE
  5
3C
330
2
100
AcDbSymbolTableRecord
100
AcDbLinetypeTableRecord
  2
DOTX2
 70
0
  3
Dot (2x) .    .    .    .    .    .    .    . 
 72
65
 73
2
 40
1.016
 49
0.0
 74
0
 49
-1.016
 74
0
  0
LTYPE
  5
3D
330
2
100
AcDbSymbolTableRecord
100
AcDbLinetypeTableRecord
  2
DOT2
 70
0
  3
Dot (.5) . . . . . . . . . . . . . . . . . . . 
 72
65
 73
2
 40
0.254
 49
0.0
 74
0
 49
-0.254
 74
0
  0
LTYPE
  5
3E
330
2
100
AcDbSymbolTableRecord
100
AcDbLinetypeTableRecord
  2
DIVIDE
 70
0
  3
Divide __ . . __ . . __ . . __ . . __ . . __
 72
65
 73
6
 40
4.064
 49
2.54
 74
0
 49
-0.508
 74
0
 49
0.0
 74
0
 49
-0.508
 74
0
 49
0.0
 74
0
 49
-0.508
 74
0
  0
LTYPE
  5
3F
330
2
100
AcDbSymbolTableRecord
100
AcDbLinetypeTableRecord
  2
DIVIDEX2
 70
0
  3
Divide (2x) ____  . .  ____  . .  ____  . .  ____
 72
65
 73
6
 40
6.604
 49
5.08
 74
0
 49
-0.508
 74
0
 49
0.0
 74
0
 49
-0.508
 74
0
 49
0.0
 74
0
 49
-0.508
 74
0
  0
LTYPE
  5
40
330
2
100
AcDbSymbolTableRecord
100
AcDbLinetypeTableRecord
  2
DIVIDE2
 70
0
  3
Divide(.5x) _ . _ . _ . _ . _ . _ . _ . _
 72
65
 73
6
 40
2.032
 49
1.27
 74
0
 49
-0.254
 74
0
 49
0.0
 74
0
 49
-0.254
 74
0
 49
0.0
 74
0
 49
-0.254
 74
0
  0
ENDTAB
  0
TABLE
  2
LAYER
  5
1
330
0
100
AcDbSymbolTable
 70
12
  0
LAYER
  5
27
330
1
100
AcDbSymbolTableRecord
100
AcDbLayerTableRecord
  2
0
 70
0
 62
7
  6
Continuous
370
-3
390
13
347
21
  0
LAYER
  5
28
330
1
100
AcDbSymbolTableRecord
100
AcDbLayerTableRecord
  2
Defpoints
 70
0
 62
7
  6
Continuous
290
0
370
-3
390
13
347
21
  0
LAYER
  5
8A
330
1
100
AcDbSymbolTableRecord
100
AcDbLayerTableRecord
  2
EJE
 70
0
 62
1
  6
CENTER
370
13
390
13
347
21
  0
LAYER
  5
8B
330
1
100
AcDbSymbolTableRecord
100
AcDbLayerTableRecord
  2
CONCRETO
 70
0
 62
7
  6
Continuous
370
35
390
13
347
21
  0
LAYER
  5
8C
330
1
100
AcDbSymbolTableRecord
100
AcDbLayerTableRecord
  2
ACERO
 70
0
 62
2
  6
Continuous
370
50
390
13
347
21
  0
LAYER
  5
8D
330
1
100
AcDbSymbolTableRecord
100
AcDbLayerTableRecord
  2
ACOTADO
 70
0
 62
3
  6
Continuous
370
18
390
13
347
21
  0
LAYER
  5
8E
330
1
100
AcDbSymbolTableRecord
100
AcDbLayerTableRecord
  2
TEXTOS
 70
0
 62
4
  6
Continuous
370
18
390
13
347
21
  0
LAYER
  5
8F
330
1
100
AcDbSymbolTableRecord
100
AcDbLayerTableRecord
  2
PERFORACIONES
 70
0
 62
5
  6
Continuous
370
25
390
13
347
21
  0
LAYER
  5
90
330
1
100
AcDbSymbolTableRecord
100
AcDbLayerTableRecord
  2
SOLDADURA
 70
0
 62
30
  6
Continuous
370
18
390
13
347
21
  0
LAYER
  5
91
330
1
100
AcDbSymbolTableRecord
100
AcDbLayerTableRecord
  2
HACHURADO
 70
0
 62
8
  6
Continuous
370
9
390
13
347
21
  0
LAYER
  5
92
330
1
100
AcDbSymbolTableRecord
100
AcDbLayerTableRecord
  2
TABLAS
 70
0
 62
7
  6
Continuous
370
18
390
13
347
21
  0
LAYER
  5
93
330
1
100
AcDbSymbolTableRecord
100
AcDbLayerTableRecord
  2
OCULTO
 70
0
 62
8
  6
HIDDEN
370
18
390
13
347
21
  0
ENDTAB
  0
TABLE
  2
STYLE
  5
5
330
0
100
AcDbSymbolTable
 70
27
  0
STYLE
  5
29
330
5
100
AcDbSymbolTableRecord
100
AcDbTextStyleTableRecord
  2
Standard
 70
0
 40
0.0
 41
1.0
 50
0.0
 71
0
 42
2.5
  3
txt
  4

  0
STYLE
  5
41
330
5
100
AcDbSymbolTableRecord
100
AcDbTextStyleTableRecord
  2
OpenSans-Light
 70
0
 40
0.0
 41
1.0
 50
0.0
 71
0
 42
2.5
  3
OpenSans-Light.ttf
  4

  0
STYLE
  5
42
330
5
100
AcDbSymbolTableRecord
100
AcDbTextStyleTableRecord
  2
OpenSans-Light-Italic
 70
0
 40
0.0
 41
1.0
 50
0.0
 71
0
 42
2.5
  3
OpenSans-LightItalic.ttf
  4

  0
STYLE
  5
43
330
5
100
AcDbSymbolTableRecord
100
AcDbTextStyleTableRecord
  2
OpenSans
 70
0
 40
0.0
 41
1.0
 50
0.0
 71
0
 42
2.5
  3
OpenSans-Regular.ttf
  4

  0
STYLE
  5
44
330
5
100
AcDbSymbolTableRecord
100
AcDbTextStyleTableRecord
  2
OpenSans-Italic
 70
0
 40
0.0
 41
1.0
 50
0.0
 71
0
 42
2.5
  3
OpenSans-Italic.ttf
  4

  0
STYLE
  5
45
330
5
100
AcDbSymbolTableRecord
100
AcDbTextStyleTableRecord
  2
OpenSans-SemiBold
 70
0
 40
0.0
 41
1.0
 50
0.0
 71
0
 42
2.5
  3
OpenSans-SemiBold.ttf
  4

  0
STYLE
  5
46
330
5
100
AcDbSymbolTableRecord
100
AcDbTextStyleTableRecord
  2
OpenSans-SemiBoldItalic
 70
0
 40
0.0
 41
1.0
 50
0.0
 71
0
 42
2.5
  3
OpenSans-SemiBoldItalic.ttf
  4

  0
STYLE
  5
47
330
5
100
AcDbSymbolTableRecord
100
AcDbTextStyleTableRecord
  2
OpenSans-Bold
 70
0
 40
0.0
 41
1.0
 50
0.0
 71
0
 42
2.5
  3
OpenSans-Bold.ttf
  4

  0
STYLE
  5
48
330
5
100
AcDbSymbolTableRecord
100
AcDbTextStyleTableRecord
  2
OpenSans-BoldItalic
 70
0
 40
0.0
 41
1.0
 50
0.0
 71
0
 42
2.5
  3
OpenSans-BoldItalic.ttf
  4

  0
STYLE
  5
49
330
5
100
AcDbSymbolTableRecord
100
AcDbTextStyleTableRecord
  2
OpenSans-ExtraBold
 70
0
 40
0.0
 41
1.0
 50
0.0
 71
0
 42
2.5
  3
OpenSans-ExtraBold.ttf
  4

  0
STYLE
  5
4A
330
5
100
AcDbSymbolTableRecord
100
AcDbTextStyleTableRecord
  2
OpenSans-ExtraBoldItalic
 70
0
 40
0.0
 41
1.0
 50
0.0
 71
0
 42
2.5
  3
OpenSans-ExtraBoldItalic.ttf
  4

  0
STYLE
  5
4B
330
5
100
AcDbSymbolTableRecord
100
AcDbTextStyleTableRecord
  2
OpenSansCondensed-Bold
 70
0
 40
0.0
 41
1.0
 50
0.0
 71
0
 42
2.5
  3
OpenSansCondensed-Bold.ttf
  4

  0
STYLE
  5
4C
330
5
100
AcDbSymbolTableRecord
100
AcDbTextStyleTableRecord
  2
OpenSansCondensed-Light
 70
0
 40
0.0
 41
1.0
 50
0.0
 71
0
 42
2.5
  3
OpenSansCondensed-Light.ttf
  4

  0
STYLE
  5
4D
330
5
100
AcDbSymbolTableRecord
100
AcDbTextStyleTableRecord
  2
OpenSansCondensed-Italic
 70
0
 40
0.0
 41
1.0
 50
0.0
 71
0
 42
2.5
  3
OpenSansCondensed-LightItalic.ttf
  4

  0
STYLE
  5
4E
330
5
100
AcDbSymbolTableRecord
100
AcDbTextStyleTableRecord
  2
LiberationSans
 70
0
 40
0.0
 41
1.0
 50
0.0
 71
0
 42
2.5
  3
LiberationSans-Regular.ttf
  4

  0
STYLE
  5
4F
330
5
100
AcDbSymbolTableRecord
100
AcDbTextStyleTableRecord
  2
LiberationSans-Bold
 70
0
 40
0.0
 41
1.0
 50
0.0
 71
0
 42
2.5
  3
LiberationSans-Bold.ttf
  4

  0
STYLE
  5
50
330
5
100
AcDbSymbolTableRecord
100
AcDbTextStyleTableRecord
  2
LiberationSans-BoldItalic
 70
0
 40
0.0
 41
1.0
 50
0.0
 71
0
 42
2.5
  3
LiberationSans-BoldItalic.ttf
  4

  0
STYLE
  5
51
330
5
100
AcDbSymbolTableRecord
100
AcDbTextStyleTableRecord
  2
LiberationSans-Italic
 70
0
 40
0.0
 41
1.0
 50
0.0
 71
0
 42
2.5
  3
LiberationSans-Italic.ttf
  4

  0
STYLE
  5
52
330
5
100
AcDbSymbolTableRecord
100
AcDbTextStyleTableRecord
  2
LiberationSerif
 70
0
 40
0.0
 41
1.0
 50
0.0
 71
0
 42
2.5
  3
LiberationSerif-Regular.ttf
  4

  0
STYLE
  5
53
330
5
100
AcDbSymbolTableRecord
100
AcDbTextStyleTableRecord
  2
LiberationSerif-Bold
 70
0
 40
0.0
 41
1.0
 50
0.0
 71
0
 42
2.5
  3
LiberationSerif-Bold.ttf
  4

  0
STYLE
  5
54
330
5
100
AcDbSymbolTableRecord
100
AcDbTextStyleTableRecord
  2
LiberationSerif-BoldItalic
 70
0
 40
0.0
 41
1.0
 50
0.0
 71
0
 42
2.5
  3
LiberationSerif-BoldItalic.ttf
  4

  0
STYLE
  5
55
330
5
100
AcDbSymbolTableRecord
100
AcDbTextStyleTableRecord
  2
LiberationSerif-Italic
 70
0
 40
0.0
 41
1.0
 50
0.0
 71
0
 42
2.5
  3
LiberationSerif-Italic.ttf
  4

  0
STYLE
  5
56
330
5
100
AcDbSymbolTableRecord
100
AcDbTextStyleTableRecord
  2
LiberationMono
 70
0
 40
0.0
 41
1.0
 50
0.0
 71
0
 42
2.5
  3
LiberationMono-Regular.ttf
  4

  0
STYLE
  5
57
330
5
100
AcDbSymbolTableRecord
100
AcDbTextStyleTableRecord
  2
LiberationMono-Bold
 70
0
 40
0.0
 41
1.0
 50
0.0
 71
0
 42
2.5
  3
LiberationMono-Bold.ttf
  4

  0
STYLE
  5
58
330
5
100
AcDbSymbolTableRecord
100
AcDbTextStyleTableRecord
  2
LiberationMono-BoldItalic
 70
0
 40
0.0
 41
1.0
 50
0.0
 71
0
 42
2.5
  3
LiberationMono-BoldItalic.ttf
  4

  0
STYLE
  5
59
330
5
100
AcDbSymbolTableRecord
100
AcDbTextStyleTableRecord
  2
LiberationMono-Italic
 70
0
 40
0.0
 41
1.0
 50
0.0
 71
0
 42
2.5
  3
LiberationMono-Italic.ttf
  4

  0
STYLE
  5
94
330
5
100
AcDbSymbolTableRecord
100
AcDbTextStyleTableRecord
  2
ING
 70
0
 40
0.0
 41
1.0
 50
0.0
 71
0
 42
2.5
  3
txt.shx
  4

  0
ENDTAB
  0
TABLE
  2
VIEW
  5
7
330
0
100
AcDbSymbolTable
 70
0
  0
ENDTAB
  0
TABLE
  2
UCS
  5
6
330
0
100
AcDbSymbolTable
 70
0
  0
ENDTAB
  0
TABLE
  2
APPID
  5
3
330
0
100
AcDbSymbolTable
 70
3
  0
APPID
  5
2A
330
3
100
AcDbSymbolTableRecord
100
AcDbRegAppTableRecord
  2
ACAD
 70
0
  0
APPID
  5
1B2
330
3
100
AcDbSymbolTableRecord
100
AcDbRegAppTableRecord
  2
HATCHBACKGROUNDCOLOR
 70
0
  0
APPID
  5
1B3
330
3
100
AcDbSymbolTableRecord
100
AcDbRegAppTableRecord
  2
EZDXF
 70
0
  0
ENDTAB
  0
TABLE
  2
DIMSTYLE
  5
4
330
0
100
AcDbSymbolTable
 70
13
100
AcDbDimStyleTable
  0
DIMSTYLE
105
2B
330
4
100
AcDbSymbolTableRecord
100
AcDbDimStyleTableRecord
  2
Standard
 70
0
 40
1.0
 41
2.5
 42
0.625
 43
3.75
 44
1.25
 45
0.0
 46
0.0
 47
0.0
 48
0.0
 49
2.5
140
2.5
141
2.5
142
0.0
143
0.03937007874
144
1.0
145
0.0
146
1.0
147
0.625
148
0.0
 69
0
 70
0
 71
0
 72
0
 73
0
 74
0
 75
0
 76
0
 77
1
 78
8
 79
3
170
0
171
3
172
1
173
0
174
0
175
0
176
0
177
0
178
0
179
2
271
2
272
2
273
2
274
3
275
0
276
0
277
2
278
44
279
0
280
0
281
0
282
0
283
0
284
8
285
0
286
0
288
0
289
3
290
0
371
-2
372
-2
  0
DIMSTYLE
105
73
330
4
100
AcDbSymbolTableRecord
100
AcDbDimStyleTableRecord
  2
EZDXF
 70
0
 40
1.0
 41
0.175
 42
0.125
 43
3.75
 44
0.375
 45
0.0
 46
0.0
 47
0.0
 48
0.0
 49
2.5
140
0.25
141
2.5
142
0.0
143
0.03937007874
144
100.0
145
0.0
146
0.5
147
0.1
148
0.0
 69
0
 70
0
 71
0
 72
0
 73
0
 74
0
 75
0
 76
0
 77
1
 78
12
 79
3
170
0
171
3
172
1
173
0
174
0
175
0
176
0
177
0
178
0
179
2
271
2
272
2
273
2
274
3
275
0
276
0
277
2
278
46
279
2
280
0
281
0
282
0
283
0
284
8
285
0
286
0
288
1
289
3
290
0
340
4C
342
74
371
-2
372
-2
  0
DIMSTYLE
105
7C
330
4
100
AcDbSymbolTableRecord
100
AcDbDimStyleTableRecord
  2
EZ_M_100_H25_CM
 70
0
 40
1.0
 41
0.25
 42
0.125
 43
3.75
 44
0.375
 45
0.0
 46
0.0
 47
0.0
 48
0.0
 49
2.5
140
0.25
141
2.5
142
0.125
143
0.03937007874
144
100.0
145
0.0
146
0.5
147
0.1
148
0.0
 69
0
 70
0
 71
0
 72
0
 73
0
 74
0
 75
0
 76
0
 77
1
 78
12
 79
3
170
0
171
3
172
1
173
0
174
0
175
0
176
0
177
0
178
0
179
2
271
2
272
2
273
2
274
3
275
0
276
0
277
2
278
46
279
2
280
0
281
0
282
0
283
0
284
8
285
0
286
0
288
1
289
3
290
0
340
4C
371
-2
372
-2
  0
DIMSTYLE
105
7D
330
4
100
AcDbSymbolTableRecord
100
AcDbDimStyleTableRecord
  2
EZ_M_50_H25_CM
 70
0
 40
1.0
 41
0.125
 42
0.0625
 43
3.75
 44
0.1875
 45
0.0
 46
0.0
 47
0.0
 48
0.0
 49
2.5
140
0.125
141
2.5
142
0.0625
143
0.03937007874
144
100.0
145
0.0
146
0.5
147
0.05
148
0.0
 69
0
 70
0
 71
0
 72
0
 73
0
 74
0
 75
0
 76
0
 77
1
 78
12
 79
3
170
0
171
3
172
1
173
0
174
0
175
0
176
0
177
0
178
0
179
2
271
2
272
2
273
2
274
3
275
0
276
0
277
2
278
46
279
2
280
0
281
0
282
0
283
0
284
8
285
0
286
0
288
1
289
3
290
0
340
4C
371
-2
372
-2
  0
DIMSTYLE
105
7E
330
4
100
AcDbSymbolTableRecord
100
AcDbDimStyleTableRecord
  2
EZ_M_25_H25_CM
 70
0
 40
1.0
 41
0.0625
 42
0.03125
 43
3.75
 44
0.09375
 45
0.0
 46
0.0
 47
0.0
 48
0.0
 49
2.5
140
0.0625
141
2.5
142
0.03125
143
0.03937007874
144
100.0
145
0.0
146
0.5
147
0.025
148
0.0
 69
0
 70
0
 71
0
 72
0
 73
0
 74
0
 75
0
 76
0
 77
1
 78
12
 79
3
170
0
171
3
172
1
173
0
174
0
175
0
176
0
177
0
178
0
179
2
271
2
272
2
273
2
274
3
275
0
276
0
277
2
278
46
279
2
280
0
281
0
282
0
283
0
284
8
285
0
286
0
288
1
289
3
290
0
340
4C
371
-2
372
-2
  0
DIMSTYLE
105
7F
330
4
100
AcDbSymbolTableRecord
100
AcDbDimStyleTableRecord
  2
EZ_M_20_H25_CM
 70
0
 40
1.0
 41
0.05
 42
0.025
 43
3.75
 44
0.07500000000000001
 45
0.0
 46
0.0
 47
0.0
 48
0.0
 49
2.5
140
0.05
141
2.5
142
0.025
143
0.03937007874
144
100.0
145
0.0
146
0.5
147
0.020000000000000004
148
0.0
 69
0
 70
0
 71
0
 72
0
 73
0
 74
0
 75
0
 76
0
 77
1
 78
12
 79
3
170
0
171
3
172
1
173
0
174
0
175
0
176
0
177
0
178
0
179
2
271
2
272
2
273
2
274
3
275
0
276
0
277
2
278
46
279
2
280
0
281
0
282
0
283
0
284
8
285
0
286
0
288
1
289
3
290
0
340
4C
371
-2
372
-2
  0
DIMSTYLE
105
80
330
4
100
AcDbSymbolTableRecord
100
AcDbDimStyleTableRecord
  2
EZ_M_10_H25_CM
 70
0
 40
1.0
 41
0.025
 42
0.0125
 43
3.75
 44
0.037500000000000006
 45
0.0
 46
0.0
 47
0.0
 48
0.0
 49
2.5
140
0.025
141
2.5
142
0.0125
143
0.03937007874
144
100.0
145
0.0
146
0.5
147
0.010000000000000002
148
0.0
 69
0
 70
0
 71
0
 72
0
 73
0
 74
0
 75
0
 76
0
 77
1
 78
12
 79
3
170
0
171
3
172
1
173
0
174
0
175
0
176
0
177
0
178
0
179
2
271
2
272
2
273
2
274
3
275
0
276
0
277
2
278
46
279
2
280
0
281
0
282
0
283
0
284
8
285
0
286
0
288
1
289
3
290
0
340
4C
371
-2
372
-2
  0
DIMSTYLE
105
81
330
4
100
AcDbSymbolTableRecord
100
AcDbDimStyleTableRecord
  2
EZ_M_5_H25_CM
 70
0
 40
1.0
 41
0.0125
 42
0.00625
 43
3.75
 44
0.018750000000000003
 45
0.0
 46
0.0
 47
0.0
 48
0.0
 49
2.5
140
0.0125
141
2.5
142
0.00625
143
0.03937007874
144
100.0
145
0.0
146
0.5
147
0.005000000000000001
148
0.0
 69
0
 70
0
 71
0
 72
0
 73
0
 74
0
 75
0
 76
0
 77
1
 78
12
 79
3
170
0
171
3
172
1
173
0
174
0
175
0
176
0
177
0
178
0
179
2
271
2
272
2
273
2
274
3
275
0
276
0
277
2
278
46
279
2
280
0
281
0
282
0
283
0
284
8
285
0
286
0
288
1
289
3
290
0
340
4C
371
-2
372
-2
  0
DIMSTYLE
105
82
330
4
100
AcDbSymbolTableRecord
100
AcDbDimStyleTableRecord
  2
EZ_M_1_H25_CM
 70
0
 40
1.0
 41
0.0025
 42
0.00125
 43
3.75
 44
0.00375
 45
0.0
 46
0.0
 47
0.0
 48
0.0
 49
2.5
140
0.0025
141
2.5
142
0.00125
143
0.03937007874
144
100.0
145
0.0
146
0.5
147
0.001
148
0.0
 69
0
 70
0
 71
0
 72
0
 73
0
 74
0
 75
0
 76
0
 77
1
 78
12
 79
3
170
0
171
3
172
1
173
0
174
0
175
0
176
0
177
0
178
0
179
2
271
2
272
2
273
2
274
3
275
0
276
0
277
2
278
46
279
2
280
0
281
0
282
0
283
0
284
8
285
0
286
0
288
1
289
3
290
0
340
4C
371
-2
372
-2
  0
DIMSTYLE
105
83
330
4
100
AcDbSymbolTableRecord
100
AcDbDimStyleTableRecord
  2
EZ_RADIUS
 70
0
 40
1.0
 41
0.25
 42
0.125
 43
3.75
 44
0.375
 45
0.0
 46
0.0
 47
0.0
 48
0.0
 49
2.5
140
0.25
141
0.0
142
0.0
143
0.03937007874
144
100.0
145
0.0
146
0.5
147
0.1
148
0.0
 69
0
 70
0
 71
0
 72
0
 73
0
 74
0
 75
0
 76
0
 77
1
 78
12
 79
3
170
0
171
3
172
0
173
0
174
0
175
0
176
0
177
0
178
0
179
2
271
2
272
2
273
2
274
3
275
0
276
0
277
2
278
46
279
1
280
0
281
0
282
0
283
0
284
8
285
0
286
0
288
1
289
3
290
0
340
4C
342
84
371
-2
372
-2
  0
DIMSTYLE
105
88
330
4
100
AcDbSymbolTableRecord
100
AcDbDimStyleTableRecord
  2
EZ_RADIUS_INSIDE
 70
0
 40
1.0
 41
0.25
 42
0.125
 43
3.75
 44
0.375
 45
0.0
 46
0.0
 47
0.0
 48
0.0
 49
2.5
140
0.25
141
0.0
142
0.0
143
0.03937007874
144
100.0
145
0.0
146
0.5
147
0.1
148
0.0
 69
0
 70
0
 71
0
 72
0
 73
0
 74
0
 75
0
 76
0
 77
0
 78
12
 79
3
170
0
171
3
172
0
173
0
174
1
175
0
176
0
177
0
178
0
179
2
271
2
272
2
273
2
274
3
275
0
276
0
277
2
278
46
279
0
280
0
281
0
282
0
283
0
284
8
285
0
286
0
288
1
289
0
290
0
340
4C
342
84
371
-2
372
-2
  0
DIMSTYLE
105
89
330
4
100
AcDbSymbolTableRecord
100
AcDbDimStyleTableRecord
  2
EZ_CURVED
 70
0
 40
1.0
 41
0.25
 42
0.125
 43
3.75
 44
0.375
 45
0.0
 46
0.0
 47
0.0
 48
0.0
 49
2.5
140
0.25
141
2.5
142
0.0
143
0.03937007874
144
100.0
145
0.0
146
0.5
147
0.1
148
0.0
 69
0
 70
0
 71
0
 72
0
 73
0
 74
0
 75
0
 76
0
 77
1
 78
12
 79
2
 90
2
170
0
171
3
172
1
173
0
174
0
175
0
176
0
177
0
178
0
179
2
271
2
272
2
273
2
274
3
275
0
276
0
277
2
278
46
279
2
280
0
281
0
282
0
283
0
284
8
285
0
286
0
288
1
289
3
290
0
340
4C
371
-2
372
-2
  0
DIMSTYLE
105
95
330
4
100
AcDbSymbolTableRecord
100
AcDbDimStyleTableRecord
  2
ING
 70
0
 40
1.0
 41
10.625
 42
3.75
 43
3.75
 44
5.625
 45
0.0
 46
0.0
 47
0.0
 48
0.0
 49
2.5
140
12.5
141
2.5
142
0.0
143
0.03937007874
144
1.0
145
0.0
146
1.0
147
4.375
148
0.0
 69
0
 70
0
 71
0
 72
0
 73
0
 74
0
 75
0
 76
0
 77
1
 78
8
 79
3
170
0
171
3
172
1
173
0
174
0
175
0
176
0
177
0
178
0
179
2
271
0
272
2
273
2
274
3
275
0
276
0
277
2
278
44
279
0
280
0
281
0
282
0
283
0
284
8
285
0
286
0
288
0
289
3
290
0
340
94
371
-2
372
-2
  0
ENDTAB
  0
TABLE
  2
BLOCK_RECORD
  5
9
330
0
100
AcDbSymbolTable
 70
12
  0
BLOCK_RECORD
  5
17
330
9
100
AcDbSymbolTableRecord
100
AcDbBlockTableRecord
  2
*Model_Space
340
1A
 70
0
280
1
281
0
  0
BLOCK_RECORD
  5
1B
330
9
100
AcDbSymbolTableRecord
100
AcDbBlockTableRecord
  2
*Paper_Space
340
1E
 70
0
280
1
281
0
  0
BLOCK_RECORD
  5
74
330
9
100
AcDbSymbolTableRecord
100
AcDbBlockTableRecord
  2
_ARCHTICK
340
0
 70
0
280
1
281
0
  0
BLOCK_RECORD
  5
78
330
9
100
AcDbSymbolTableRecord
100
AcDbBlockTableRecord
  2
_CLOSEDFILLED
340
0
 70
0
280
1
281
0
  0
BLOCK_RECORD
  5
84
330
9
100
AcDbSymbolTableRecord
100
AcDbBlockTableRecord
  2
_CLOSEDBLANK
340
0
 70
0
280
1
281
0
  0
BLOCK_RECORD
  5
104
330
9
100
AcDbSymbolTableRecord
100
AcDbBlockTableRecord
  2
*D1
340
0
 70
0
280
1
281
0
  0
BLOCK_RECORD
  5
113
330
9
100
AcDbSymbolTableRecord
100
AcDbBlockTableRecord
  2
*D2
340
0
 70
0
280
1
281
0
  0
BLOCK_RECORD
  5
122
330
9
100
AcDbSymbolTableRecord
100
AcDbBlockTableRecord
  2
*D3
340
0
 70
0
280
1
281
0
  0
BLOCK_RECORD
  5
133
330
9
100
AcDbSymbolTableRecord
100
AcDbBlockTableRecord
  2
*D4
340
0
 70
0
280
1
281
0
  0
BLOCK_RECORD
  5
145
330
9
100
AcDbSymbolTableRecord
100
AcDbBlockTableRecord
  2
*D5
340
0
 70
0
280
1
281
0
  0
BLOCK_RECORD
  5
154
330
9
100
AcDbSymbolTableRecord
100
AcDbBlockTableRecord
  2
*D6
340
0
 70
0
280
1
281
0
  0
BLOCK_RECORD
  5
165
330
9
100
AcDbSymbolTableRecord
100
AcDbBlockTableRecord
  2
*D7
340
0
 70
0
280
1
281
0
  0
ENDTAB
  0
ENDSEC
  0
SECTION
  2
BLOCKS
  0
BLOCK
  5
18
330
17
100
AcDbEntity
  8
0
100
AcDbBlockBegin
  2
*Model_Space
 70
0
 10
0.0
 20
0.0
 30
0.0
  3
*Model_Space
  1

  0
ENDBLK
  5
19
330
17
100
AcDbEntity
  8
0
100
AcDbBlockEnd
  0
BLOCK
  5
1C
330
1B
100
AcDbEntity
  8
0
100
AcDbBlockBegin
  2
*Paper_Space
 70
0
 10
0.0
 20
0.0
 30
0.0
  3
*Paper_Space
  1

  0
ENDBLK
  5
1D
330
1B
100
AcDbEntity
  8
0
100
AcDbBlockEnd
  0
BLOCK
  5
75
330
74
100
AcDbEntity
  8
0
100
AcDbBlockBegin
  2
_ARCHTICK
 70
0
 10
0.0
 20
0.0
 30
0.0
  3
_ARCHTICK
  1

  0
LWPOLYLINE
  5
77
330
74
100
AcDbEntity
  8
0
  6
BYBLOCK
 62
0
100
AcDbPolyline
 90
2
 70
0
 43
0.15
 10
-0.5
 20
-0.5
 10
0.5
 20
0.5
  0
ENDBLK
  5
76
330
74
100
AcDbEntity
  8
0
100
AcDbBlockEnd
  0
BLOCK
  5
79
330
78
100
AcDbEntity
  8
0
100
AcDbBlockBegin
  2
_CLOSEDFILLED
 70
0
 10
0.0
 20
0.0
 30
0.0
  3
_CLOSEDFILLED
  1

  0
SOLID
  5
7B
330
78
100
AcDbEntity
  8
0
  6
BYBLOCK
 62
0
100
AcDbTrace
 10
-1.0
 20
0.16439898372402537
 30
0.0
 11
0.0
 21
0.0
 31
0.0
 12
-1.0
 22
-0.16439898372402537
 32
0.0
 13
-1.0
 23
-0.16439898372402537
 33
0.0
  0
ENDBLK
  5
7A
330
78
100
AcDbEntity
  8
0
100
AcDbBlockEnd
  0
BLOCK
  5
85
330
84
100
AcDbEntity
  8
0
100
AcDbBlockBegin
  2
_CLOSEDBLANK
 70
0
 10
0.0
 20
0.0
 30
0.0
  3
_CLOSEDBLANK
  1

  0
LWPOLYLINE
  5
87
330
84
100
AcDbEntity
  8
0
  6
BYBLOCK
 62
0
100
AcDbPolyline
 90
3
 70
1
 10
-1.0
 20
0.16439898372402537
 10
0.0
 20
0.0
 10
-1.0
 20
-0.16439898372402537
  0
ENDBLK
  5
86
330
84
100
AcDbEntity
  8
0
100
AcDbBlockEnd
  0
BLOCK
  5
105
330
104
100
AcDbEntity
  8
0
100
AcDbBlockBegin
  2
*D1
 70
1
 10
0.0
 20
0.0
 30
0.0
  3
*D1
  1

  0
LINE
  5
107
330
104
100
AcDbEntity
  8
0
100
AcDbLine
 10
-200.0
 20
-403.75
 30
0.0
 11
-200.0
 21
-630.625
 31
0.0
  0
LINE
  5
108
330
104
100
AcDbEntity
  8
0
100
AcDbLine
 10
0.0
 20
-403.75
 30
0.0
 11
0.0
 21
-630.625
 31
0.0
  0
INSERT
  5
109
330
104
100
AcDbEntity
  8
ACOTADO
100
AcDbBlockReference
  2
_CLOSEDFILLED
 10
-200.0
 20
-625.0
 30
0.0
 41
10.625
 42
10.625
 50
180.0
  0
INSERT
  5
10B
330
104
100
AcDbEntity
  8
ACOTADO
100
AcDbBlockReference
  2
_CLOSEDFILLED
 10
0.0
 20
-625.0
 30
0.0
 41
10.625
 42
10.625
  0
LINE
  5
10D
330
104
100
AcDbEntity
  8
0
100
AcDbLine
 10
-189.375
 20
-625.0
 30
0.0
 11
-10.625
 21
-625.0
 31
0.0
  0
MTEXT
  5
10E
330
104
100
AcDbEntity
  8
ACOTADO
100
AcDbMText
 10
-100.0
 20
-614.375
 30
0.0
 40
12.5
 71
5
  1
200
  7
ING
  0
POINT
  5
10F
330
104
100
AcDbEntity
  8
Defpoints
100
AcDbPoint
 10
-200.0
 20
-625.0
 30
0.0
  0
POINT
  5
110
330
104
100
AcDbEntity
  8
Defpoints
100
AcDbPoint
 10
-200.0
 20
-400.0
 30
0.0
  0
POINT
  5
111
330
104
100
AcDbEntity
  8
Defpoints
100
AcDbPoint
 10
0.0
 20
-400.0
 30
0.0
  0
ENDBLK
  5
106
330
104
100
AcDbEntity
  8
0
100
AcDbBlockEnd
  0
BLOCK
  5
114
330
113
100
AcDbEntity
  8
0
100
AcDbBlockBegin
  2
*D2
 70
1
 10
0.0
 20
0.0
 30
0.0
  3
*D2
  1

  0
LINE
  5
116
330
113
100
AcDbEntity
  8
0
100
AcDbLine
 10
0.0
 20
-403.75
 30
0.0
 11
0.0
 21
-630.625
 31
0.0
  0
LINE
  5
117
330
113
100
AcDbEntity
  8
0
100
AcDbLine
 10
4000.0
 20
-403.75
 30
0.0
 11
4000.0
 21
-630.625
 31
0.0
  0
INSERT
  5
118
330
113
100
AcDbEntity
  8
ACOTADO
100
AcDbBlockReference
  2
_CLOSEDFILLED
 10
0.0
 20
-625.0
 30
0.0
 41
10.625
 42
10.625
 50
180.0
  0
INSERT
  5
11A
330
113
100
AcDbEntity
  8
ACOTADO
100
AcDbBlockReference
  2
_CLOSEDFILLED
 10
4000.0
 20
-625.0
 30
0.0
 41
10.625
 42
10.625
  0
LINE
  5
11C
330
113
100
AcDbEntity
  8
0
100
AcDbLine
 10
10.625
 20
-625.0
 30
0.0
 11
3989.375
 21
-625.0
 31
0.0
  0
MTEXT
  5
11D
330
113
100
AcDbEntity
  8
ACOTADO
100
AcDbMText
 10
2000.0
 20
-614.375
 30
0.0
 40
12.5
 71
5
  1
4000
  7
ING
  0
POINT
  5
11E
330
113
100
AcDbEntity
  8
Defpoints
100
AcDbPoint
 10
0.0
 20
-625.0
 30
0.0
  0
POINT
  5
11F
330
113
100
AcDbEntity
  8
Defpoints
100
AcDbPoint
 10
0.0
 20
-400.0
 30
0.0
  0
POINT
  5
120
330
113
100
AcDbEntity
  8
Defpoints
100
AcDbPoint
 10
4000.0
 20
-400.0
 30
0.0
  0
ENDBLK
  5
115
330
113
100
AcDbEntity
  8
0
100
AcDbBlockEnd
  0
BLOCK
  5
123
330
122
100
AcDbEntity
  8
0
100
AcDbBlockBegin
  2
*D3
 70
1
 10
0.0
 20
0.0
 30
0.0
  3
*D3
  1

  0
LINE
  5
125
330
122
100
AcDbEntity
  8
0
100
AcDbLine
 10
4000.0
 20
-403.75
 30
0.0
 11
4000.0
 21
-630.625
 31
0.0
  0
LINE
  5
126
330
122
100
AcDbEntity
  8
0
100
AcDbLine
 10
4200.0
 20
-403.75
 30
0.0
 11
4200.0
 21
-630.625
 31
0.0
  0
INSERT
  5
127
330
122
100
AcDbEntity
  8
ACOTADO
100
AcDbBlockReference
  2
_CLOSEDFILLED
 10
4000.0
 20
-625.0
 30
0.0
 41
10.625
 42
10.625
 50
180.0
  0
INSERT
  5
129
330
122
100
AcDbEntity
  8
ACOTADO
100
AcDbBlockReference
  2
_CLOSEDFILLED
 10
4200.0
 20
-625.0
 30
0.0
 41
10.625
 42
10.625
  0
LINE
  5
12B
330
122
100
AcDbEntity
  8
0
100
AcDbLine
 10
4010.625
 20
-625.0
 30
0.0
 11
4189.375
 21
-625.0
 31
0.0
  0
MTEXT
  5
12C
330
122
100
AcDbEntity
  8
ACOTADO
100
AcDbMText
 10
4100.0
 20
-614.375
 30
0.0
 40
12.5
 71
5
  1
200
  7
ING
  0
POINT
  5
12D
330
122
100
AcDbEntity
  8
Defpoints
100
AcDbPoint
 10
4000.0
 20
-625.0
 30
0.0
  0
POINT
  5
12E
330
122
100
AcDbEntity
  8
Defpoints
100
AcDbPoint
 10
4000.0
 20
-400.0
 30
0.0
  0
POINT
  5
12F
330
122
100
AcDbEntity
  8
Defpoints
100
AcDbPoint
 10
4200.0
 20
-400.0
 30
0.0
  0
ENDBLK
  5
124
330
122
100
AcDbEntity
  8
0
100
AcDbBlockEnd
  0
BLOCK
  5
134
330
133
100
AcDbEntity
  8
0
100
AcDbBlockBegin
  2
*D4
 70
1
 10
0.0
 20
0.0
 30
0.0
  3
*D4
  1

  0
LINE
  5
136
330
133
100
AcDbEntity
  8
0
100
AcDbLine
 10
-200.0
 20
-403.75
 30
0.0
 11
-200.0
 21
-805.625
 31
0.0
  0
LINE
  5
137
330
133
100
AcDbEntity
  8
0
100
AcDbLine
 10
4200.0
 20
-403.75
 30
0.0
 11
4200.0
 21
-805.625
 31
0.0
  0
INSERT
  5
138
330
133
100
AcDbEntity
  8
ACOTADO
100
AcDbBlockReference
  2
_CLOSEDFILLED
 10
-200.0
 20
-800.0
 30
0.0
 41
10.625
 42
10.625
 50
180.0
  0
INSERT
  5
13A
330
133
100
AcDbEntity
  8
ACOTADO
100
AcDbBlockReference
  2
_CLOSEDFILLED
 10
4200.0
 20
-800.0
 30
0.0
 41
10.625
 42
10.625
  0
LINE
  5
13C
330
133
100
AcDbEntity
  8
0
100
AcDbLine
 10
-189.375
 20
-800.0
 30
0.0
 11
4189.375
 21
-800.0
 31
0.0
  0
MTEXT
  5
13D
330
133
100
AcDbEntity
  8
ACOTADO
100
AcDbMText
 10
2000.0
 20
-789.375
 30
0.0
 40
12.5
 71
5
  1
4400
  7
ING
  0
POINT
  5
13E
330
133
100
AcDbEntity
  8
Defpoints
100
AcDbPoint
 10
-200.0
 20
-800.0
 30
0.0
  0
POINT
  5
13F
330
133
100
AcDbEntity
  8
Defpoints
100
AcDbPoint
 10
-200.0
 20
-400.0
 30
0.0
  0
POINT
  5
140
330
133
100
AcDbEntity
  8
Defpoints
100
AcDbPoint
 10
4200.0
 20
-400.0
 30
0.0
  0
ENDBLK
  5
135
330
133
100
AcDbEntity
  8
0
100
AcDbBlockEnd
  0
BLOCK
  5
146
330
145
100
AcDbEntity
  8
0
100
AcDbBlockBegin
  2
*D5
 70
1
 10
0.0
 20
0.0
 30
0.0
  3
*D5
  1

  0
LINE
  5
148
330
145
100
AcDbEntity
  8
0
100
AcDbLine
 10
4203.75
 20
-400.0
 30
0.0
 11
4430.625
 21
-400.0
 31
0.0
  0
LINE
  5
149
330
145
100
AcDbEntity
  8
0
100
AcDbLine
 10
4203.75
 20
0.0
 30
0.0
 11
4430.625
 21
0.0
 31
0.0
  0
INSERT
  5
14A
330
145
100
AcDbEntity
  8
ACOTADO
100
AcDbBlockReference
  2
_CLOSEDFILLED
 10
4425.0
 20
-400.0
 30
0.0
 41
10.625
 42
10.625
 50
270.0
  0
INSERT
  5
14C
330
145
100
AcDbEntity
  8
ACOTADO
100
AcDbBlockReference
  2
_CLOSEDFILLED
 10
4425.0
 20
0.0
 30
0.0
 41
10.625
 42
10.625
 50
90.0
  0
LINE
  5
14E
330
145
100
AcDbEntity
  8
0
100
AcDbLine
 10
4425.0
 20
-389.375
 30
0.0
 11
4425.0
 21
-10.625
 31
0.0
  0
MTEXT
  5
14F
330
145
100
AcDbEntity
  8
ACOTADO
100
AcDbMText
 10
4414.375
 20
-200.0
 30
0.0
 40
12.5
 71
5
  1
400
  7
ING
 50
90.0
  0
POINT
  5
150
330
145
100
AcDbEntity
  8
Defpoints
100
AcDbPoint
 10
4425.0
 20
-400.0
 30
0.0
  0
POINT
  5
151
330
145
100
AcDbEntity
  8
Defpoints
100
AcDbPoint
 10
4200.0
 20
-400.0
 30
0.0
  0
POINT
  5
152
330
145
100
AcDbEntity
  8
Defpoints
100
AcDbPoint
 10
4200.0
 20
0.0
 30
0.0
  0
ENDBLK
  5
147
330
145
100
AcDbEntity
  8
0
100
AcDbBlockEnd
  0
BLOCK
  5
155
330
154
100
AcDbEntity
  8
0
100
AcDbBlockBegin
  2
*D6
 70
1
 10
0.0
 20
0.0
 30
0.0
  3
*D6
  1

  0
LINE
  5
157
330
154
100
AcDbEntity
  8
0
100
AcDbLine
 10
4203.75
 20
0.0
 30
0.0
 11
4430.625
 21
0.0
 31
0.0
  0
LINE
  5
158
330
154
100
AcDbEntity
  8
0
100
AcDbLine
 10
4203.75
 20
150.0
 30
0.0
 11
4430.625
 21
150.0
 31
0.0
  0
INSERT
  5
159
330
154
100
AcDbEntity
  8
ACOTADO
100
AcDbBlockReference
  2
_CLOSEDFILLED
 10
4425.0
 20
0.0
 30
0.0
 41
10.625
 42
10.625
 50
270.0
  0
INSERT
  5
15B
330
154
100
AcDbEntity
  8
ACOTADO
100
AcDbBlockReference
  2
_CLOSEDFILLED
 10
4425.0
 20
150.0
 30
0.0
 41
10.625
 42
10.625
 50
90.0
  0
LINE
  5
15D
330
154
100
AcDbEntity
  8
0
100
AcDbLine
 10
4425.0
 20
10.625
 30
0.0
 11
4425.0
 21
139.375
 31
0.0
  0
MTEXT
  5
15E
330
154
100
AcDbEntity
  8
ACOTADO
100
AcDbMText
 10
4414.375
 20
75.0
 30
0.0
 40
12.5
 71
5
  1
150
  7
ING
 50
90.0
  0
POINT
  5
15F
330
154
100
AcDbEntity
  8
Defpoints
100
AcDbPoint
 10
4425.0
 20
0.0
 30
0.0
  0
POINT
  5
160
330
154
100
AcDbEntity
  8
Defpoints
100
AcDbPoint
 10
4200.0
 20
0.0
 30
0.0
  0
POINT
  5
161
330
154
100
AcDbEntity
  8
Defpoints
100
AcDbPoint
 10
4200.0
 20
150.0
 30
0.0
  0
ENDBLK
  5
156
330
154
100
AcDbEntity
  8
0
100
AcDbBlockEnd
  0
BLOCK
  5
166
330
165
100
AcDbEntity
  8
0
100
AcDbBlockBegin
  2
*D7
 70
1
 10
0.0
 20
0.0
 30
0.0
  3
*D7
  1

  0
LINE
  5
168
330
165
100
AcDbEntity
  8
0
100
AcDbLine
 10
-100.0
 20
153.75
 30
0.0
 11
-100.0
 21
380.625
 31
0.0
  0
LINE
  5
169
330
165
100
AcDbEntity
  8
0
100
AcDbLine
 10
500.0
 20
153.75
 30
0.0
 11
500.0
 21
380.625
 31
0.0
  0
INSERT
  5
16A
330
165
100
AcDbEntity
  8
ACOTADO
100
AcDbBlockReference
  2
_CLOSEDFILLED
 10
-100.0
 20
375.0
 30
0.0
 41
10.625
 42
10.625
 50
180.0
  0
INSERT
  5
16C
330
165
100
AcDbEntity
  8
ACOTADO
100
AcDbBlockReference
  2
_CLOSEDFILLED
 10
500.0
 20
375.0
 30
0.0
 41
10.625
 42
10.625
  0
LINE
  5
16E
330
165
100
AcDbEntity
  8
0
100
AcDbLine
 10
-89.375
 20
375.0
 30
0.0
 11
489.375
 21
375.0
 31
0.0
  0
MTEXT
  5
16F
330
165
100
AcDbEntity
  8
ACOTADO
100
AcDbMText
 10
200.0
 20
385.625
 30
0.0
 40
12.5
 71
5
  1
a = 0.60
  7
ING
  0
POINT
  5
170
330
165
100
AcDbEntity
  8
Defpoints
100
AcDbPoint
 10
-100.0
 20
375.0
 30
0.0
  0
POINT
  5
171
330
165
100
AcDbEntity
  8
Defpoints
100
AcDbPoint
 10
-100.0
 20
150.0
 30
0.0
  0
POINT
  5
172
330
165
100
AcDbEntity
  8
Defpoints
100
AcDbPoint
 10
500.0
 20
150.0
 30
0.0
  0
ENDBLK
  5
167
330
165
100
AcDbEntity
  8
0
100
AcDbBlockEnd
  0
ENDSEC
  0
SECTION
  2
ENTITIES
  0
LWPOLYLINE
  5
96
330
17
100
AcDbEntity
  8
CONCRETO
100
AcDbPolyline
 90
4
 70
1
 10
-200.0
 20
0.0
 10
4200.0
 20
0.0
 10
4200.0
 20
150.0
 10
-200.0
 20
150.0
  0
LINE
  5
97
330
17
100
AcDbEntity
  8
HACHURADO
100
AcDbLine
 10
4115.1471862576145
 20
0.0
 30
0.0
 11
4200.0
 21
84.85281374238548
 31
0.0
  0
LINE
  5
98
330
17
100
AcDbEntity
  8
HACHURADO
100
AcDbLine
 10
4030.294372515229
 20
0.0
 30
0.0
 11
4180.294372515229
 21
150.00000000000023
 31
0.0
  0
LINE
  5
99
330
17
100
AcDbEntity
  8
HACHURADO
100
AcDbLine
 10
3945.4415587728427
 20
0.0
 30
0.0
 11
4095.4415587728436
 21
150.00000000000023
 31
0.0
  0
LINE
  5
9A
330
17
100
AcDbEntity
  8
HACHURADO
100
AcDbLine
 10
3860.588745030457
 20
0.0
 30
0.0
 11
4010.588745030457
 21
150.00000000000045
 31
0.0
  0
LINE
  5
9B
330
17
100
AcDbEntity
  8
HACHURADO
100
AcDbLine
 10
3775.7359312880717
 20
0.0
 30
0.0
 11
3925.7359312880717
 21
150.00000000000023
 31
0.0
  0
LINE
  5
9C
330
17
100
AcDbEntity
  8
HACHURADO
100
AcDbLine
 10
3690.883117545686
 20
0.0
 30
0.0
 11
3840.883117545686
 21
150.00000000000023
 31
0.0
  0
LINE
  5
9D
330
17
100
AcDbEntity
  8
HACHURADO
100
AcDbLine
 10
3606.0303038033
 20
0.0
 30
0.0
 11
3756.0303038033003
 21
150.00000000000023
 31
0.0
  0
LINE
  5
9E
330
17
100
AcDbEntity
  8
HACHURADO
100
AcDbLine
 10
3521.1774900609144
 20
0.0
 30
0.0
 11
3671.177490060915
 21
150.00000000000023
 31
0.0
  0
LINE
  5
9F
330
17
100
AcDbEntity
  8
HACHURADO
100
AcDbLine
 10
3436.324676318529
 20
0.0
 30
0.0
 11
3586.324676318529
 21
150.00000000000023
 31
0.0
  0
LINE
  5
A0
330
17
100
AcDbEntity
  8
HACHURADO
100
AcDbLine
 10
3351.4718625761434
 20
0.0
 30
0.0
 11
3501.4718625761434
 21
150.00000000000023
 31
0.0
  0
LINE
  5
A1
330
17
100
AcDbEntity
  8
HACHURADO
100
AcDbLine
 10
3266.6190488337575
 20
0.0
 30
0.0
 11
3416.619048833758
 21
150.00000000000023
 31
0.0
  0
LINE
  5
A2
330
17
100
AcDbEntity
  8
HACHURADO
100
AcDbLine
 10
3181.7662350913715
 20
2.2737367544323206e-13
 30
0.0
 11
3331.766235091372
 21
150.00000000000045
 31
0.0
  0
LINE
  5
A3
330
17
100
AcDbEntity
  8
HACHURADO
100
AcDbLine
 10
3096.913421348986
 20
0.0
 30
0.0
 11
3246.913421348986
 21
150.00000000000023
 31
0.0
  0
LINE
  5
A4
330
17
100
AcDbEntity
  8
HACHURADO
100
AcDbLine
 10
3012.0606076066006
 20
2.2737367544323206e-13
 30
0.0
 11
3162.0606076066006
 21
150.00000000000045
 31
0.0
  0
LINE
  5
A5
330
17
100
AcDbEntity
  8
HACHURADO
100
AcDbLine
 10
2927.2077938642146
 20
0.0
 30
0.0
 11
3077.2077938642146
 21
150.0
 31
0.0
  0
LINE
  5
A6
330
17
100
AcDbEntity
  8
HACHURADO
100
AcDbLine
 10
2842.3549801218287
 20
0.0
 30
0.0
 11
2992.354980121829
 21
150.00000000000045
 31
0.0
  0
LINE
  5
A7
330
17
100
AcDbEntity
  8
HACHURADO
100
AcDbLine
 10
2757.502166379443
 20
2.2737367544323206e-13
 30
0.0
 11
2907.502166379443
 21
150.00000000000023
 31
0.0
  0
LINE
  5
A8
330
17
100
AcDbEntity
  8
HACHURADO
100
AcDbLine
 10
2672.6493526370577
 20
2.2737367544323206e-13
 30
0.0
 11
2822.6493526370577
 21
150.00000000000045
 31
0.0
  0
LINE
  5
A9
330
17
100
AcDbEntity
  8
HACHURADO
100
AcDbLine
 10
2587.796538894672
 20
0.0
 30
0.0
 11
2737.796538894672
 21
150.0
 31
0.0
  0
LINE
  5
AA
330
17
100
AcDbEntity
  8
HACHURADO
100
AcDbLine
 10
2502.943725152286
 20
2.2737367544323206e-13
 30
0.0
 11
2652.943725152286
 21
150.0
 31
0.0
  0
LINE
  5
AB
330
17
100
AcDbEntity
  8
HACHURADO
100
AcDbLine
 10
2418.0909114099004
 20
2.2737367544323206e-13
 30
0.0
 11
2568.0909114099004
 21
150.00000000000023
 31
0.0
  0
LINE
  5
AC
330
17
100
AcDbEntity
  8
HACHURADO
100
AcDbLine
 10
2333.238097667515
 20
2.2737367544323206e-13
 30
0.0
 11
2483.238097667515
 21
150.00000000000023
 31
0.0
  0
LINE
  5
AD
330
17
100
AcDbEntity
  8
HACHURADO
100
AcDbLine
 10
2248.3852839251294
 20
2.2737367544323206e-13
 30
0.0
 11
2398.385283925129
 21
150.0
 31
0.0
  0
LINE
  5
AE
330
17
100
AcDbEntity
  8
HACHURADO
100
AcDbLine
 10
2163.532470182743
 20
2.2737367544323206e-13
 30
0.0
 11
2313.532470182743
 21
150.0
 31
0.0
  0
LINE
  5
AF
330
17
100
AcDbEntity
  8
HACHURADO
100
AcDbLine
 10
2078.6796564403576
 20
0.0
 30
0.0
 11
2228.6796564403576
 21
150.0
 31
0.0
  0
LINE
  5
B0
330
17
100
AcDbEntity
  8
HACHURADO
100
AcDbLine
 10
1993.8268426979719
 20
2.2737367544323206e-13
 30
0.0
 11
2143.8268426979716
 21
150.0
 31
0.0
  0
LINE
  5
B1
330
17
100
AcDbEntity
  8
HACHURADO
100
AcDbLine
 10
1908.9740289555862
 20
2.2737367544323206e-13
 30
0.0
 11
2058.974028955586
 21
150.0000000000001
 31
0.0
  0
LINE
  5
B2
330
17
100
AcDbEntity
  8
HACHURADO
100
AcDbLine
 10
1824.1212152132005
 20
2.2737367544323206e-13
 30
0.0
 11
1974.1212152132002
 21
150.0
 31
0.0
  0
LINE
  5
B3
330
17
100
AcDbEntity
  8
HACHURADO
100
AcDbLine
 10
1739.2684014708148
 20
2.2737367544323206e-13
 30
0.0
 11
1889.2684014708148
 21
150.00000000000023
 31
0.0
  0
LINE
  5
B4
330
17
100
AcDbEntity
  8
HACHURADO
100
AcDbLine
 10
1654.415587728429
 20
2.2737367544323206e-13
 30
0.0
 11
1804.4155877284288
 21
150.0000000000001
 31
0.0
  0
LINE
  5
B5
330
17
100
AcDbEntity
  8
HACHURADO
100
AcDbLine
 10
1569.5627739860433
 20
2.2737367544323206e-13
 30
0.0
 11
1719.5627739860433
 21
150.0000000000001
 31
0.0
  0
LINE
  5
B6
330
17
100
AcDbEntity
  8
HACHURADO
100
AcDbLine
 10
1484.7099602436574
 20
1.1368683772161603e-13
 30
0.0
 11
1634.7099602436574
 21
150.0000000000001
 31
0.0
  0
LINE
  5
B7
330
17
100
AcDbEntity
  8
HACHURADO
100
AcDbLine
 10
1399.857146501272
 20
1.1368683772161603e-13
 30
0.0
 11
1549.857146501272
 21
150.0000000000001
 31
0.0
  0
LINE
  5
B8
330
17
100
AcDbEntity
  8
HACHURADO
100
AcDbLine
 10
1315.0043327588862
 20
2.2737367544323206e-13
 30
0.0
 11
1465.004332758886
 21
150.0000000000001
 31
0.0
  0
LINE
  5
B9
330
17
100
AcDbEntity
  8
HACHURADO
100
AcDbLine
 10
1230.1515190165005
 20
1.1368683772161603e-13
 30
0.0
 11
1380.1515190165003
 21
150.0
 31
0.0
  0
LINE
  5
BA
330
17
100
AcDbEntity
  8
HACHURADO
100
AcDbLine
 10
1145.2987052741146
 20
1.1368683772161603e-13
 30
0.0
 11
1295.2987052741146
 21
150.0000000000001
 31
0.0
  0
LINE
  5
BB
330
17
100
AcDbEntity
  8
HACHURADO
100
AcDbLine
 10
1060.445891531729
 20
1.1368683772161603e-13
 30
0.0
 11
1210.4458915317286
 21
149.9999999999999
 31
0.0
  0
LINE
  5
BC
330
17
100
AcDbEntity
  8
HACHURADO
100
AcDbLine
 10
975.5930777893433
 20
1.1368683772161603e-13
 30
0.0
 11
1125.5930777893432
 21
149.9999999999999
 31
0.0
  0
LINE
  5
BD
330
17
100
AcDbEntity
  8
HACHURADO
100
AcDbLine
 10
890.7402640469576
 20
1.1368683772161603e-13
 30
0.0
 11
1040.7402640469575
 21
149.9999999999999
 31
0.0
  0
LINE
  5
BE
330
17
100
AcDbEntity
  8
HACHURADO
100
AcDbLine
 10
805.8874503045718
 20
0.0
 30
0.0
 11
955.887450304572
 21
150.00000000000023
 31
0.0
  0
LINE
  5
BF
330
17
100
AcDbEntity
  8
HACHURADO
100
AcDbLine
 10
721.0346365621862
 20
1.1368683772161603e-13
 30
0.0
 11
871.0346365621863
 21
150.00000000000017
 31
0.0
  0
LINE
  5
C0
330
17
100
AcDbEntity
  8
HACHURADO
100
AcDbLine
 10
636.1818228198003
 20
5.684341886080802e-14
 30
0.0
 11
786.1818228198006
 21
150.00000000000017
 31
0.0
  0
LINE
  5
C1
330
17
100
AcDbEntity
  8
HACHURADO
100
AcDbLine
 10
551.3290090774148
 20
1.1368683772161603e-13
 30
0.0
 11
701.3290090774149
 21
150.00000000000017
 31
0.0
  0
LINE
  5
C2
330
17
100
AcDbEntity
  8
HACHURADO
100
AcDbLine
 10
466.476195335029
 20
5.684341886080802e-14
 30
0.0
 11
616.4761953350288
 21
149.9999999999999
 31
0.0
  0
LINE
  5
C3
330
17
100
AcDbEntity
  8
HACHURADO
100
AcDbLine
 10
381.6233815926433
 20
5.684341886080802e-14
 30
0.0
 11
531.6233815926431
 21
149.9999999999999
 31
0.0
  0
LINE
  5
C4
330
17
100
AcDbEntity
  8
HACHURADO
100
AcDbLine
 10
296.7705678502575
 20
2.842170943040401e-14
 30
0.0
 11
446.7705678502574
 21
149.9999999999999
 31
0.0
  0
LINE
  5
C5
330
17
100
AcDbEntity
  8
HACHURADO
100
AcDbLine
 10
211.91775410787184
 20
2.842170943040401e-14
 30
0.0
 11
361.91775410787176
 21
149.9999999999999
 31
0.0
  0
LINE
  5
C6
330
17
100
AcDbEntity
  8
HACHURADO
100
AcDbLine
 10
127.06494036548611
 20
1.4210854715202004e-14
 30
0.0
 11
277.06494036548605
 21
149.9999999999999
 31
0.0
  0
LINE
  5
C7
330
17
100
AcDbEntity
  8
HACHURADO
100
AcDbLine
 10
42.21212662310041
 20
1.4210854715202004e-14
 30
0.0
 11
192.21212662310035
 21
149.99999999999991
 31
0.0
  0
LINE
  5
C8
330
17
100
AcDbEntity
  8
HACHURADO
100
AcDbLine
 10
-42.6406871192853
 20
1.4210854715202004e-14
 30
0.0
 11
107.35931288071464
 21
149.99999999999991
 31
0.0
  0
LINE
  5
C9
330
17
100
AcDbEntity
  8
HACHURADO
100
AcDbLine
 10
-127.49350086167102
 20
0.0
 30
0.0
 11
22.50649913832892
 21
149.99999999999991
 31
0.0
  0
LINE
  5
CA
330
17
100
AcDbEntity
  8
HACHURADO
100
AcDbLine
 10
-199.99999999999997
 20
12.346314604056758
 30
0.0
 11
-62.34631460405677
 21
149.99999999999994
 31
0.0
  0
LINE
  5
CB
330
17
100
AcDbEntity
  8
HACHURADO
100
AcDbLine
 10
-200.0
 20
97.19912834644244
 30
0.0
 11
-147.1991283464425
 21
149.99999999999991
 31
0.0
  0
LWPOLYLINE
  5
CC
330
17
100
AcDbEntity
  8
CONCRETO
100
AcDbPolyline
 90
4
 70
1
 10
-200.0
 20
-400.0
 10
0.0
 20
-400.0
 10
0.0
 20
0.0
 10
-200.0
 20
0.0
  0
LINE
  5
CD
330
17
100
AcDbEntity
  8
HACHURADO
100
AcDbLine
 10
-63.63961030678925
 20
-400.0
 30
0.0
 11
2.842170943040401e-14
 21
-336.36038969321066
 31
0.0
  0
LINE
  5
CE
330
17
100
AcDbEntity
  8
HACHURADO
100
AcDbLine
 10
-127.27922061357856
 20
-400.0
 30
0.0
 11
2.842170943040401e-14
 21
-272.72077938642144
 31
0.0
  0
LINE
  5
CF
330
17
100
AcDbEntity
  8
HACHURADO
100
AcDbLine
 10
-190.9188309203678
 20
-399.99999999999994
 30
0.0
 11
0.0
 21
-209.08116907963216
 31
0.0
  0
LINE
  5
D0
330
17
100
AcDbEntity
  8
HACHURADO
100
AcDbLine
 10
-199.99999999999994
 20
-345.4415587728428
 30
0.0
 11
0.0
 21
-145.44155877284288
 31
0.0
  0
LINE
  5
D1
330
17
100
AcDbEntity
  8
HACHURADO
100
AcDbLine
 10
-199.99999999999994
 20
-281.80194846605355
 30
0.0
 11
1.4210854715202004e-14
 21
-81.8019484660536
 31
0.0
  0
LINE
  5
D2
330
17
100
AcDbEntity
  8
HACHURADO
100
AcDbLine
 10
-199.99999999999994
 20
-218.16233815926427
 30
0.0
 11
0.0
 21
-18.16233815926435
 31
0.0
  0
LINE
  5
D3
330
17
100
AcDbEntity
  8
HACHURADO
100
AcDbLine
 10
-199.99999999999997
 20
-154.52272785247504
 30
0.0
 11
-45.47727214752493
 21
0.0
 31
0.0
  0
LINE
  5
D4
330
17
100
AcDbEntity
  8
HACHURADO
100
AcDbLine
 10
-199.99999999999997
 20
-90.88311754568575
 30
0.0
 11
-109.11688245431421
 21
0.0
 31
0.0
  0
LINE
  5
D5
330
17
100
AcDbEntity
  8
HACHURADO
100
AcDbLine
 10
-200.0
 20
-27.2435072388965
 30
0.0
 11
-172.7564927611035
 21
0.0
 31
0.0
  0
LWPOLYLINE
  5
D6
330
17
100
AcDbEntity
  8
CONCRETO
100
AcDbPolyline
 90
4
 70
1
 10
4000.0
 20
-400.0
 10
4200.0
 20
-400.0
 10
4200.0
 20
0.0
 10
4000.0
 20
0.0
  0
LINE
  5
D7
330
17
100
AcDbEntity
  8
HACHURADO
100
AcDbLine
 10
4136.360389693211
 20
-400.0
 30
0.0
 11
4200.0
 21
-336.36038969321066
 31
0.0
  0
LINE
  5
D8
330
17
100
AcDbEntity
  8
HACHURADO
100
AcDbLine
 10
4072.720779386422
 20
-400.0
 30
0.0
 11
4200.0
 21
-272.72077938642155
 31
0.0
  0
LINE
  5
D9
330
17
100
AcDbEntity
  8
HACHURADO
100
AcDbLine
 10
4009.081169079632
 20
-400.0000000000002
 30
0.0
 11
4200.0
 21
-209.08116907963245
 31
0.0
  0
LINE
  5
DA
330
17
100
AcDbEntity
  8
HACHURADO
100
AcDbLine
 10
4000.0
 20
-345.4415587728431
 30
0.0
 11
4200.0
 21
-145.44155877284265
 31
0.0
  0
LINE
  5
DB
330
17
100
AcDbEntity
  8
HACHURADO
100
AcDbLine
 10
3999.9999999999995
 20
-281.8019484660538
 30
0.0
 11
4200.0
 21
-81.80194846605355
 31
0.0
  0
LINE
  5
DC
330
17
100
AcDbEntity
  8
HACHURADO
100
AcDbLine
 10
3999.9999999999995
 20
-218.16233815926466
 30
0.0
 11
4200.0
 21
-18.162338159264436
 31
0.0
  0
LINE
  5
DD
330
17
100
AcDbEntity
  8
HACHURADO
100
AcDbLine
 10
4000.0
 20
-154.52272785247555
 30
0.0
 11
4154.522727852475
 21
0.0
 31
0.0
  0
LINE
  5
DE
330
17
100
AcDbEntity
  8
HACHURADO
100
AcDbLine
 10
4000.0
 20
-90.88311754568599
 30
0.0
 11
4090.883117545686
 21
0.0
 31
0.0
  0
LINE
  5
DF
330
17
100
AcDbEntity
  8
HACHURADO
100
AcDbLine
 10
4000.0
 20
-27.243507238896882
 30
0.0
 11
4027.2435072388967
 21
0.0
 31
0.0
  0
LINE
  5
E0
330
17
100
AcDbEntity
  8
EJE
100
AcDbLine
 10
-100.0
 20
-525.0
 30
0.0
 11
-100.0
 21
300.0
 31
0.0
  0
LINE
  5
E1
330
17
100
AcDbEntity
  8
EJE
100
AcDbLine
 10
4100.0
 20
-525.0
 30
0.0
 11
4100.0
 21
300.0
 31
0.0
  0
LWPOLYLINE
  5
E2
330
17
100
AcDbEntity
  8
ACERO
100
AcDbPolyline
 90
2
 70
0
 43
1.44
 10
-150.0
 20
-114.0
 10
-150.0
 20
7.105427357601002e-15
  0
ARC
  5
E3
330
17
100
AcDbEntity
  8
ACERO
100
AcDbCircle
 10
-114.0
 20
7.105427357601002e-15
 30
0.0
 40
36.0
100
AcDbArc
 50
90.0
 51
180.0
  0
LWPOLYLINE
  5
E4
330
17
100
AcDbEntity
  8
ACERO
100
AcDbPolyline
 90
2
 70
0
 43
1.44
 10
-114.0
 20
36.0
 10
4114.0
 20
36.0
  0
ARC
  5
E5
330
17
100
AcDbEntity
  8
ACERO
100
AcDbCircle
 10
4114.0
 20
0.0
 30
0.0
 40
36.0
100
AcDbArc
 50
1.1308638867425837e-14
 51
90.0
  0
LWPOLYLINE
  5
E6
330
17
100
AcDbEntity
  8
ACERO
100
AcDbPolyline
 90
2
 70
0
 43
1.44
 10
4150.0
 20
7.105427357601002e-15
 10
4150.0
 20
-114.0
  0
HATCH
  5
E7
330
17
100
AcDbEntity
  8
ACERO
 62
7
100
AcDbHatch
 10
0.0
 20
0.0
 30
0.0
210
0.0
220
0.0
230
1.0
  2
SOLID
 70
0
 71
0
 91
1
 92
1
 93
2
 72
2
 10
-170.0
 20
46.0
 40
4.0
 50
0.0
 51
180.0
 73
1
 72
2
 10
-170.0
 20
46.0
 40
4.0
 50
180.0
 51
360.0
 73
1
 97
0
 75
1
 76
1
 52
0.0
 41
1.0
 77
0
 78
1
 53
45.0
 43
0.0
 44
0.0
 45
-0.0883883476
 46
0.0883883476
 79
0
 98
0
  0
HATCH
  5
E8
330
17
100
AcDbEntity
  8
ACERO
 62
7
100
AcDbHatch
 10
0.0
 20
0.0
 30
0.0
210
0.0
220
0.0
230
1.0
  2
SOLID
 70
0
 71
0
 91
1
 92
1
 93
2
 72
2
 10
80.0
 20
46.0
 40
4.0
 50
0.0
 51
180.0
 73
1
 72
2
 10
80.0
 20
46.0
 40
4.0
 50
180.0
 51
360.0
 73
1
 97
0
 75
1
 76
1
 52
0.0
 41
1.0
 77
0
 78
1
 53
45.0
 43
0.0
 44
0.0
 45
-0.0883883476
 46
0.0883883476
 79
0
 98
0
  0
HATCH
  5
E9
330
17
100
AcDbEntity
  8
ACERO
 62
7
100
AcDbHatch
 10
0.0
 20
0.0
 30
0.0
210
0.0
220
0.0
230
1.0
  2
SOLID
 70
0
 71
0
 91
1
 92
1
 93
2
 72
2
 10
330.0
 20
46.0
 40
4.0
 50
0.0
 51
180.0
 73
1
 72
2
 10
330.0
 20
46.0
 40
4.0
 50
180.0
 51
360.0
 73
1
 97
0
 75
1
 76
1
 52
0.0
 41
1.0
 77
0
 78
1
 53
45.0
 43
0.0
 44
0.0
 45
-0.0883883476
 46
0.0883883476
 79
0
 98
0
  0
HATCH
  5
EA
330
17
100
AcDbEntity
  8
ACERO
 62
7
100
AcDbHatch
 10
0.0
 20
0.0
 30
0.0
210
0.0
220
0.0
230
1.0
  2
SOLID
 70
0
 71
0
 91
1
 92
1
 93
2
 72
2
 10
580.0
 20
46.0
 40
4.0
 50
0.0
 51
180.0
 73
1
 72
2
 10
580.0
 20
46.0
 40
4.0
 50
180.0
 51
360.0
 73
1
 97
0
 75
1
 76
1
 52
0.0
 41
1.0
 77
0
 78
1
 53
45.0
 43
0.0
 44
0.0
 45
-0.0883883476
 46
0.0883883476
 79
0
 98
0
  0
HATCH
  5
EB
330
17
100
AcDbEntity
  8
ACERO
 62
7
100
AcDbHatch
 10
0.0
 20
0.0
 30
0.0
210
0.0
220
0.0
230
1.0
  2
SOLID
 70
0
 71
0
 91
1
 92
1
 93
2
 72
2
 10
830.0
 20
46.0
 40
4.0
 50
0.0
 51
180.0
 73
1
 72
2
 10
830.0
 20
46.0
 40
4.0
 50
180.0
 51
360.0
 73
1
 97
0
 75
1
 76
1
 52
0.0
 41
1.0
 77
0
 78
1
 53
45.0
 43
0.0
 44
0.0
 45
-0.0883883476
 46
0.0883883476
 79
0
 98
0
  0
HATCH
  5
EC
330
17
100
AcDbEntity
  8
ACERO
 62
7
100
AcDbHatch
 10
0.0
 20
0.0
 30
0.0
210
0.0
220
0.0
230
1.0
  2
SOLID
 70
0
 71
0
 91
1
 92
1
 93
2
 72
2
 10
1080.0
 20
46.0
 40
4.0
 50
0.0
 51
180.0
 73
1
 72
2
 10
1080.0
 20
46.0
 40
4.0
 50
180.0
 51
360.0
 73
1
 97
0
 75
1
 76
1
 52
0.0
 41
1.0
 77
0
 78
1
 53
45.0
 43
0.0
 44
0.0
 45
-0.0883883476
 46
0.0883883476
 79
0
 98
0
  0
HATCH
  5
ED
330
17
100
AcDbEntity
  8
ACERO
 62
7
100
AcDbHatch
 10
0.0
 20
0.0
 30
0.0
210
0.0
220
0.0
230
1.0
  2
SOLID
 70
0
 71
0
 91
1
 92
1
 93
2
 72
2
 10
1330.0
 20
46.0
 40
4.0
 50
0.0
 51
180.0
 73
1
 72
2
 10
1330.0
 20
46.0
 40
4.0
 50
180.0
 51
360.0
 73
1
 97
0
 75
1
 76
1
 52
0.0
 41
1.0
 77
0
 78
1
 53
45.0
 43
0.0
 44
0.0
 45
-0.0883883476
 46
0.0883883476
 79
0
 98
0
  0
HATCH
  5
EE
330
17
100
AcDbEntity
  8
ACERO
 62
7
100
AcDbHatch
 10
0.0
 20
0.0
 30
0.0
210
0.0
220
0.0
230
1.0
  2
SOLID
 70
0
 71
0
 91
1
 92
1
 93
2
 72
2
 10
1580.0
 20
46.0
 40
4.0
 50
0.0
 51
180.0
 73
1
 72
2
 10
1580.0
 20
46.0
 40
4.0
 50
180.0
 51
360.0
 73
1
 97
0
 75
1
 76
1
 52
0.0
 41
1.0
 77
0
 78
1
 53
45.0
 43
0.0
 44
0.0
 45
-0.0883883476
 46
0.0883883476
 79
0
 98
0
  0
HATCH
  5
EF
330
17
100
AcDbEntity
  8
ACERO
 62
7
100
AcDbHatch
 10
0.0
 20
0.0
 30
0.0
210
0.0
220
0.0
230
1.0
  2
SOLID
 70
0
 71
0
 91
1
 92
1
 93
2
 72
2
 10
1830.0
 20
46.0
 40
4.0
 50
0.0
 51
180.0
 73
1
 72
2
 10
1830.0
 20
46.0
 40
4.0
 50
180.0
 51
360.0
 73
1
 97
0
 75
1
 76
1
 52
0.0
 41
1.0
 77
0
 78
1
 53
45.0
 43
0.0
 44
0.0
 45
-0.0883883476
 46
0.0883883476
 79
0
 98
0
  0
HATCH
  5
F0
330
17
100
AcDbEntity
  8
ACERO
 62
7
100
AcDbHatch
 10
0.0
 20
0.0
 30
0.0
210
0.0
220
0.0
230
1.0
  2
SOLID
 70
0
 71
0
 91
1
 92
1
 93
2
 72
2
 10
2080.0
 20
46.0
 40
4.0
 50
0.0
 51
180.0
 73
1
 72
2
 10
2080.0
 20
46.0
 40
4.0
 50
180.0
 51
360.0
 73
1
 97
0
 75
1
 76
1
 52
0.0
 41
1.0
 77
0
 78
1
 53
45.0
 43
0.0
 44
0.0
 45
-0.0883883476
 46
0.0883883476
 79
0
 98
0
  0
HATCH
  5
F1
330
17
100
AcDbEntity
  8
ACERO
 62
7
100
AcDbHatch
 10
0.0
 20
0.0
 30
0.0
210
0.0
220
0.0
230
1.0
  2
SOLID
 70
0
 71
0
 91
1
 92
1
 93
2
 72
2
 10
2330.0
 20
46.0
 40
4.0
 50
0.0
 51
180.0
 73
1
 72
2
 10
2330.0
 20
46.0
 40
4.0
 50
180.0
 51
360.0
 73
1
 97
0
 75
1
 76
1
 52
0.0
 41
1.0
 77
0
 78
1
 53
45.0
 43
0.0
 44
0.0
 45
-0.0883883476
 46
0.0883883476
 79
0
 98
0
  0
HATCH
  5
F2
330
17
100
AcDbEntity
  8
ACERO
 62
7
100
AcDbHatch
 10
0.0
 20
0.0
 30
0.0
210
0.0
220
0.0
230
1.0
  2
SOLID
 70
0
 71
0
 91
1
 92
1
 93
2
 72
2
 10
2580.0
 20
46.0
 40
4.0
 50
0.0
 51
180.0
 73
1
 72
2
 10
2580.0
 20
46.0
 40
4.0
 50
180.0
 51
360.0
 73
1
 97
0
 75
1
 76
1
 52
0.0
 41
1.0
 77
0
 78
1
 53
45.0
 43
0.0
 44
0.0
 45
-0.0883883476
 46
0.0883883476
 79
0
 98
0
  0
HATCH
  5
F3
330
17
100
AcDbEntity
  8
ACERO
 62
7
100
AcDbHatch
 10
0.0
 20
0.0
 30
0.0
210
0.0
220
0.0
230
1.0
  2
SOLID
 70
0
 71
0
 91
1
 92
1
 93
2
 72
2
 10
2830.0
 20
46.0
 40
4.0
 50
0.0
 51
180.0
 73
1
 72
2
 10
2830.0
 20
46.0
 40
4.0
 50
180.0
 51
360.0
 73
1
 97
0
 75
1
 76
1
 52
0.0
 41
1.0
 77
0
 78
1
 53
45.0
 43
0.0
 44
0.0
 45
-0.0883883476
 46
0.0883883476
 79
0
 98
0
  0
HATCH
  5
F4
330
17
100
AcDbEntity
  8
ACERO
 62
7
100
AcDbHatch
 10
0.0
 20
0.0
 30
0.0
210
0.0
220
0.0
230
1.0
  2
SOLID
 70
0
 71
0
 91
1
 92
1
 93
2
 72
2
 10
3080.0
 20
46.0
 40
4.0
 50
0.0
 51
180.0
 73
1
 72
2
 10
3080.0
 20
46.0
 40
4.0
 50
180.0
 51
360.0
 73
1
 97
0
 75
1
 76
1
 52
0.0
 41
1.0
 77
0
 78
1
 53
45.0
 43
0.0
 44
0.0
 45
-0.0883883476
 46
0.0883883476
 79
0
 98
0
  0
HATCH
  5
F5
330
17
100
AcDbEntity
  8
ACERO
 62
7
100
AcDbHatch
 10
0.0
 20
0.0
 30
0.0
210
0.0
220
0.0
230
1.0
  2
SOLID
 70
0
 71
0
 91
1
 92
1
 93
2
 72
2
 10
3330.0
 20
46.0
 40
4.0
 50
0.0
 51
180.0
 73
1
 72
2
 10
3330.0
 20
46.0
 40
4.0
 50
180.0
 51
360.0
 73
1
 97
0
 75
1
 76
1
 52
0.0
 41
1.0
 77
0
 78
1
 53
45.0
 43
0.0
 44
0.0
 45
-0.0883883476
 46
0.0883883476
 79
0
 98
0
  0
HATCH
  5
F6
330
17
100
AcDbEntity
  8
ACERO
 62
7
100
AcDbHatch
 10
0.0
 20
0.0
 30
0.0
210
0.0
220
0.0
230
1.0
  2
SOLID
 70
0
 71
0
 91
1
 92
1
 93
2
 72
2
 10
3580.0
 20
46.0
 40
4.0
 50
0.0
 51
180.0
 73
1
 72
2
 10
3580.0
 20
46.0
 40
4.0
 50
180.0
 51
360.0
 73
1
 97
0
 75
1
 76
1
 52
0.0
 41
1.0
 77
0
 78
1
 53
45.0
 43
0.0
 44
0.0
 45
-0.0883883476
 46
0.0883883476
 79
0
 98
0
  0
HATCH
  5
F7
330
17
100
AcDbEntity
  8
ACERO
 62
7
100
AcDbHatch
 10
0.0
 20
0.0
 30
0.0
210
0.0
220
0.0
230
1.0
  2
SOLID
 70
0
 71
0
 91
1
 92
1
 93
2
 72
2
 10
3830.0
 20
46.0
 40
4.0
 50
0.0
 51
180.0
 73
1
 72
2
 10
3830.0
 20
46.0
 40
4.0
 50
180.0
 51
360.0
 73
1
 97
0
 75
1
 76
1
 52
0.0
 41
1.0
 77
0
 78
1
 53
45.0
 43
0.0
 44
0.0
 45
-0.0883883476
 46
0.0883883476
 79
0
 98
0
  0
HATCH
  5
F8
330
17
100
AcDbEntity
  8
ACERO
 62
7
100
AcDbHatch
 10
0.0
 20
0.0
 30
0.0
210
0.0
220
0.0
230
1.0
  2
SOLID
 70
0
 71
0
 91
1
 92
1
 93
2
 72
2
 10
4080.0
 20
46.0
 40
4.0
 50
0.0
 51
180.0
 73
1
 72
2
 10
4080.0
 20
46.0
 40
4.0
 50
180.0
 51
360.0
 73
1
 97
0
 75
1
 76
1
 52
0.0
 41
1.0
 77
0
 78
1
 53
45.0
 43
0.0
 44
0.0
 45
-0.0883883476
 46
0.0883883476
 79
0
 98
0
  0
LWPOLYLINE
  5
F9
330
17
100
AcDbEntity
  8
ACERO
100
AcDbPolyline
 90
2
 70
0
 43
1.2
 10
-160.0
 20
-35.0
 10
-160.0
 20
85.0
  0
ARC
  5
FA
330
17
100
AcDbEntity
  8
ACERO
100
AcDbCircle
 10
-130.0
 20
85.0
 30
0.0
 40
30.0
100
AcDbArc
 50
90.0
 51
180.0
  0
LWPOLYLINE
  5
FB
330
17
100
AcDbEntity
  8
ACERO
100
AcDbPolyline
 90
2
 70
0
 43
1.2
 10
-130.0
 20
115.0
 10
500.0
 20
115.0
  0
LWPOLYLINE
  5
FC
330
17
100
AcDbEntity
  8
ACERO
100
AcDbPolyline
 90
2
 70
0
 43
1.2
 10
4160.0
 20
-35.0
 10
4160.0
 20
85.0
  0
ARC
  5
FD
330
17
100
AcDbEntity
  8
ACERO
100
AcDbCircle
 10
4130.0
 20
85.0
 30
0.0
 40
30.0
100
AcDbArc
 50
0.0
 51
90.0
  0
LWPOLYLINE
  5
FE
330
17
100
AcDbEntity
  8
ACERO
100
AcDbPolyline
 90
2
 70
0
 43
1.2
 10
4130.0
 20
115.0
 10
3500.0
 20
115.0
  0
LINE
  5
FF
330
17
100
AcDbEntity
  8
ACOTADO
100
AcDbLine
 10
-200.0
 20
-404.5
 30
0.0
 11
-200.0
 21
-631.75
 31
0.0
  0
LINE
  5
100
330
17
100
AcDbEntity
  8
ACOTADO
100
AcDbLine
 10
0.0
 20
-404.5
 30
0.0
 11
0.0
 21
-631.75
 31
0.0
  0
LINE
  5
101
330
17
100
AcDbEntity
  8
ACOTADO
100
AcDbLine
 10
4000.0
 20
-404.5
 30
0.0
 11
4000.0
 21
-631.75
 31
0.0
  0
LINE
  5
102
330
17
100
AcDbEntity
  8
ACOTADO
100
AcDbLine
 10
4200.0
 20
-404.5
 30
0.0
 11
4200.0
 21
-631.75
 31
0.0
  0
DIMENSION
  5
103
330
17
100
AcDbEntity
  8
ACOTADO
100
AcDbDimension
280
0
  2
*D1
  3
ING
 10
-200.0
 20
-625.0
 30
0.0
 11
-100.0
 21
-614.375
 31
0.0
 70
32
 71
5
  1
200
100
AcDbAlignedDimension
 13
-200.0
 23
-400.0
 33
0.0
 14
0.0
 24
-400.0
 34
0.0
 50
0.0
100
AcDbRotatedDimension
  0
DIMENSION
  5
112
330
17
100
AcDbEntity
  8
ACOTADO
100
AcDbDimension
280
0
  2
*D2
  3
ING
 10
0.0
 20
-625.0
 30
0.0
 11
2000.0
 21
-614.375
 31
0.0
 70
32
 71
5
  1
4000
100
AcDbAlignedDimension
 13
0.0
 23
-400.0
 33
0.0
 14
4000.0
 24
-400.0
 34
0.0
 50
0.0
100
AcDbRotatedDimension
  0
DIMENSION
  5
121
330
17
100
AcDbEntity
  8
ACOTADO
100
AcDbDimension
280
0
  2
*D3
  3
ING
 10
4000.0
 20
-625.0
 30
0.0
 11
4100.0
 21
-614.375
 31
0.0
 70
32
 71
5
  1
200
100
AcDbAlignedDimension
 13
4000.0
 23
-400.0
 33
0.0
 14
4200.0
 24
-400.0
 34
0.0
 50
0.0
100
AcDbRotatedDimension
  0
LINE
  5
130
330
17
100
AcDbEntity
  8
ACOTADO
100
AcDbLine
 10
-200.0
 20
-404.5
 30
0.0
 11
-200.0
 21
-806.75
 31
0.0
  0
LINE
  5
131
330
17
100
AcDbEntity
  8
ACOTADO
100
AcDbLine
 10
4200.0
 20
-404.5
 30
0.0
 11
4200.0
 21
-806.75
 31
0.0
  0
DIMENSION
  5
132
330
17
100
AcDbEntity
  8
ACOTADO
100
AcDbDimension
280
0
  2
*D4
  3
ING
 10
-200.0
 20
-800.0
 30
0.0
 11
2000.0
 21
-789.375
 31
0.0
 70
32
 71
5
  1
4400
100
AcDbAlignedDimension
 13
-200.0
 23
-400.0
 33
0.0
 14
4200.0
 24
-400.0
 34
0.0
 50
0.0
100
AcDbRotatedDimension
  0
LINE
  5
141
330
17
100
AcDbEntity
  8
ACOTADO
100
AcDbLine
 10
4204.5
 20
-400.0
 30
0.0
 11
4431.75
 21
-400.0
 31
0.0
  0
LINE
  5
142
330
17
100
AcDbEntity
  8
ACOTADO
100
AcDbLine
 10
4204.5
 20
0.0
 30
0.0
 11
4431.75
 21
0.0
 31
0.0
  0
LINE
  5
143
330
17
100
AcDbEntity
  8
ACOTADO
100
AcDbLine
 10
4204.5
 20
150.0
 30
0.0
 11
4431.75
 21
150.0
 31
0.0
  0
DIMENSION
  5
144
330
17
100
AcDbEntity
  8
ACOTADO
100
AcDbDimension
280
0
  2
*D5
  3
ING
 10
4425.0
 20
-400.0
 30
0.0
 11
4414.375
 21
-200.0
 31
0.0
 70
32
 71
5
  1
400
100
AcDbAlignedDimension
 13
4200.0
 23
-400.0
 33
0.0
 14
4200.0
 24
0.0
 34
0.0
 50
90.0
100
AcDbRotatedDimension
  0
DIMENSION
  5
153
330
17
100
AcDbEntity
  8
ACOTADO
100
AcDbDimension
280
0
  2
*D6
  3
ING
 10
4425.0
 20
0.0
 30
0.0
 11
4414.375
 21
75.0
 31
0.0
 70
32
 71
5
  1
150
100
AcDbAlignedDimension
 13
4200.0
 23
0.0
 33
0.0
 14
4200.0
 24
150.0
 34
0.0
 50
90.0
100
AcDbRotatedDimension
  0
LINE
  5
162
330
17
100
AcDbEntity
  8
ACOTADO
100
AcDbLine
 10
-100.0
 20
154.5
 30
0.0
 11
-100.0
 21
381.75
 31
0.0
  0
LINE
  5
163
330
17
100
AcDbEntity
  8
ACOTADO
100
AcDbLine
 10
500.0
 20
154.5
 30
0.0
 11
500.0
 21
381.75
 31
0.0
  0
DIMENSION
  5
164
330
17
100
AcDbEntity
  8
ACOTADO
100
AcDbDimension
280
0
  2
*D7
  3
ING
 10
-100.0
 20
375.0
 30
0.0
 11
200.0
 21
385.625
 31
0.0
 70
32
 71
5
  1
a = 0.60
100
AcDbAlignedDimension
 13
-100.0
 23
150.0
 33
0.0
 14
500.0
 24
150.0
 34
0.0
 50
0.0
100
AcDbRotatedDimension
  0
LINE
  5
173
330
17
100
AcDbEntity
  8
TEXTOS
100
AcDbLine
 10
2000.0
 20
36.0
 30
0.0
 11
1700.0
 21
386.0
 31
0.0
  0
LINE
  5
174
330
17
100
AcDbEntity
  8
TEXTOS
100
AcDbLine
 10
1700.0
 20
386.0
 30
0.0
 11
1575.0
 21
386.0
 31
0.0
  0
TEXT
  5
175
330
17
100
AcDbEntity
  8
TEXTOS
100
AcDbText
 10
1575.0
 20
386.0
 30
0.0
 40
15.0
  1
Ø12 c/20.0 m (INFERIOR)
  7
ING
 72
2
 11
1575.0
 21
386.0
 31
0.0
100
AcDbText
 73
1
  0
LINE
  5
176
330
17
100
AcDbEntity
  8
TEXTOS
100
AcDbLine
 10
3000.0
 20
46.0
 30
0.0
 11
3200.0
 21
-304.0
 31
0.0
  0
LINE
  5
177
330
17
100
AcDbEntity
  8
TEXTOS
100
AcDbLine
 10
3200.0
 20
-304.0
 30
0.0
 11
3325.0
 21
-304.0
 31
0.0
  0
TEXT
  5
178
330
17
100
AcDbEntity
  8
TEXTOS
100
AcDbText
 10
3325.0
 20
-304.0
 30
0.0
 40
15.0
  1
Ø8 c/25.0 m (REPARTICIÓN)
  7
ING
 11
3325.0
 21
-304.0
 31
0.0
100
AcDbText
 73
1
  0
LINE
  5
179
330
17
100
AcDbEntity
  8
TEXTOS
100
AcDbLine
 10
3800.0
 20
120.0
 30
0.0
 11
3950.0
 21
525.0
 31
0.0
  0
LINE
  5
17A
330
17
100
AcDbEntity
  8
TEXTOS
100
AcDbLine
 10
3950.0
 20
525.0
 30
0.0
 11
4075.0
 21
525.0
 31
0.0
  0
TEXT
  5
17B
330
17
100
AcDbEntity
  8
TEXTOS
100
AcDbText
 10
4075.0
 20
525.0
 30
0.0
 40
15.0
  1
Ø10 c/15.0 m (SUPERIOR)
  7
ING
 11
4075.0
 21
525.0
 31
0.0
100
AcDbText
 73
1
  0
TEXT
  5
17C
330
17
100
AcDbEntity
  8
TABLAS
100
AcDbText
 10
-255.0
 20
-1179.3
 30
0.0
 40
34.5
  1
CUADRO DE DESPIECE DE BARRAS
  7
ING
 72
1
 11
-255.0
 21
-1179.3
 31
0.0
100
AcDbText
 73
1
  0
LWPOLYLINE
  5
17D
330
17
100
AcDbEntity
  8
TABLAS
100
AcDbPolyline
 90
4
 70
1
 10
-650.0
 20
-1200.0
 10
140.0
 20
-1200.0
 10
140.0
 20
-1525.0
 10
-650.0
 20
-1525.0
  0
LINE
  5
17E
330
17
100
AcDbEntity
  8
TABLAS
100
AcDbLine
 10
-650.0
 20
-1265.0
 30
0.0
 11
140.0
 21
-1265.0
 31
0.0
  0
LINE
  5
17F
330
17
100
AcDbEntity
  8
TABLAS
100
AcDbLine
 10
-550.0
 20
-1200.0
 30
0.0
 11
-550.0
 21
-1525.0
 31
0.0
  0
LINE
  5
180
330
17
100
AcDbEntity
  8
TABLAS
100
AcDbLine
 10
-380.0
 20
-1200.0
 30
0.0
 11
-380.0
 21
-1525.0
 31
0.0
  0
LINE
  5
181
330
17
100
AcDbEntity
  8
TABLAS
100
AcDbLine
 10
-300.0
 20
-1200.0
 30
0.0
 11
-300.0
 21
-1525.0
 31
0.0
  0
LINE
  5
182
330
17
100
AcDbEntity
  8
TABLAS
100
AcDbLine
 10
-230.0
 20
-1200.0
 30
0.0
 11
-230.0
 21
-1525.0
 31
0.0
  0
LINE
  5
183
330
17
100
AcDbEntity
  8
TABLAS
100
AcDbLine
 10
-110.0
 20
-1200.0
 30
0.0
 11
-110.0
 21
-1525.0
 31
0.0
  0
LINE
  5
184
330
17
100
AcDbEntity
  8
TABLAS
100
AcDbLine
 10
10.0
 20
-1200.0
 30
0.0
 11
10.0
 21
-1525.0
 31
0.0
  0
TEXT
  5
185
330
17
100
AcDbEntity
  8
TABLAS
100
AcDbText
 10
-600.0
 20
-1297.5
 30
0.0
 40
30.0
  1
MARCA
  7
ING
 72
1
 11
-600.0
 21
-1297.5
 31
0.0
100
AcDbText
 73
2
  0
TEXT
  5
186
330
17
100
AcDbEntity
  8
TABLAS
100
AcDbText
 10
-465.0
 20
-1297.5
 30
0.0
 40
30.0
  1
FORMA
  7
ING
 72
1
 11
-465.0
 21
-1297.5
 31
0.0
100
AcDbText
 73
2
  0
TEXT
  5
187
330
17
100
AcDbEntity
  8
TABLAS
100
AcDbText
 10
-340.0
 20
-1286.6666666666667
 30
0.0
 40
30.0
  1
Ø
  7
ING
 72
1
 11
-340.0
 21
-1286.6666666666667
 31
0.0
100
AcDbText
 73
2
  0
TEXT
  5
188
330
17
100
AcDbEntity
  8
TABLAS
100
AcDbText
 10
-340.0
 20
-1308.3333333333333
 30
0.0
 40
30.0
  1
(mm)
  7
ING
 72
1
 11
-340.0
 21
-1308.3333333333333
 31
0.0
100
AcDbText
 73
2
  0
TEXT
  5
189
330
17
100
AcDbEntity
  8
TABLAS
100
AcDbText
 10
-265.0
 20
-1297.5
 30
0.0
 40
30.0
  1
Nº
  7
ING
 72
1
 11
-265.0
 21
-1297.5
 31
0.0
100
AcDbText
 73
2
  0
TEXT
  5
18A
330
17
100
AcDbEntity
  8
TABLAS
100
AcDbText
 10
-170.0
 20
-1286.6666666666667
 30
0.0
 40
30.0
  1
LARGO
  7
ING
 72
1
 11
-170.0
 21
-1286.6666666666667
 31
0.0
100
AcDbText
 73
2
  0
TEXT
  5
18B
330
17
100
AcDbEntity
  8
TABLAS
100
AcDbText
 10
-170.0
 20
-1308.3333333333333
 30
0.0
 40
30.0
  1
(m)
  7
ING
 72
1
 11
-170.0
 21
-1308.3333333333333
 31
0.0
100
AcDbText
 73
2
  0
TEXT
  5
18C
330
17
100
AcDbEntity
  8
TABLAS
100
AcDbText
 10
-50.0
 20
-1286.6666666666667
 30
0.0
 40
30.0
  1
P.U.
  7
ING
 72
1
 11
-50.0
 21
-1286.6666666666667
 31
0.0
100
AcDbText
 73
2
  0
TEXT
  5
18D
330
17
100
AcDbEntity
  8
TABLAS
100
AcDbText
 10
-50.0
 20
-1308.3333333333333
 30
0.0
 40
30.0
  1
(kg/m)
  7
ING
 72
1
 11
-50.0
 21
-1308.3333333333333
 31
0.0
100
AcDbText
 73
2
  0
TEXT
  5
18E
330
17
100
AcDbEntity
  8
TABLAS
100
AcDbText
 10
75.0
 20
-1286.6666666666667
 30
0.0
 40
30.0
  1
PESO
  7
ING
 72
1
 11
75.0
 21
-1286.6666666666667
 31
0.0
100
AcDbText
 73
2
  0
TEXT
  5
18F
330
17
100
AcDbEntity
  8
TABLAS
100
AcDbText
 10
75.0
 20
-1308.3333333333333
 30
0.0
 40
30.0
  1
(kg)
  7
ING
 72
1
 11
75.0
 21
-1308.3333333333333
 31
0.0
100
AcDbText
 73
2
  0
TEXT
  5
190
330
17
100
AcDbEntity
  8
TABLAS
100
AcDbText
 10
-600.0
 20
-1297.5
 30
0.0
 40
30.0
  1
B1
  7
ING
 72
1
 11
-600.0
 21
-1297.5
 31
0.0
100
AcDbText
 73
2
  0
LINE
  5
191
330
17
100
AcDbEntity
  8
ACERO
100
AcDbLine
 10
-533.0
 20
-1299.8720930232557
 30
0.0
 11
-533.0
 21
-1296.266511627907
 31
0.0
  0
ARC
  5
192
330
17
100
AcDbEntity
  8
ACERO
100
AcDbCircle
 10
-531.8613953488372
 20
-1296.266511627907
 30
0.0
 40
1.1386046511627905
100
AcDbArc
 50
90.0
 51
180.0
  0
LINE
  5
193
330
17
100
AcDbEntity
  8
ACERO
100
AcDbLine
 10
-531.8613953488372
 20
-1295.1279069767443
 30
0.0
 11
-398.1386046511628
 21
-1295.1279069767443
 31
0.0
  0
ARC
  5
194
330
17
100
AcDbEntity
  8
ACERO
100
AcDbCircle
 10
-398.1386046511628
 20
-1296.266511627907
 30
0.0
 40
1.1386046511627905
100
AcDbArc
 50
1.1308638867425837e-14
 51
90.0
  0
LINE
  5
195
330
17
100
AcDbEntity
  8
ACERO
100
AcDbLine
 10
-397.0
 20
-1296.266511627907
 30
0.0
 11
-397.0
 21
-1299.8720930232557
 31
0.0
  0
TEXT
  5
196
330
17
100
AcDbEntity
  8
TABLAS
100
AcDbText
 10
-340.0
 20
-1297.5
 30
0.0
 40
30.0
  1
Ø12.0
  7
ING
 72
1
 11
-340.0
 21
-1297.5
 31
0.0
100
AcDbText
 73
2
  0
TEXT
  5
197
330
17
100
AcDbEntity
  8
TABLAS
100
AcDbText
 10
-265.0
 20
-1297.5
 30
0.0
 40
30.0
  1
21
  7
ING
 72
1
 11
-265.0
 21
-1297.5
 31
0.0
100
AcDbText
 73
2
  0
TEXT
  5
198
330
17
100
AcDbEntity
  8
TABLAS
100
AcDbText
 10
-170.0
 20
-1297.5
 30
0.0
 40
30.0
  1
4.57
  7
ING
 72
1
 11
-170.0
 21
-1297.5
 31
0.0
100
AcDbText
 73
2
  0
TEXT
  5
199
330
17
100
AcDbEntity
  8
TABLAS
100
AcDbText
 10
-50.0
 20
-1297.5
 30
0.0
 40
30.0
  1
0.89
  7
ING
 72
1
 11
-50.0
 21
-1297.5
 31
0.0
100
AcDbText
 73
2
  0
TEXT
  5
19A
330
17
100
AcDbEntity
  8
TABLAS
100
AcDbText
 10
75.0
 20
-1297.5
 30
0.0
 40
30.0
  1
85.29
  7
ING
 72
1
 11
75.0
 21
-1297.5
 31
0.0
100
AcDbText
 73
2
  0
LINE
  5
19B
330
17
100
AcDbEntity
  8
TABLAS
100
AcDbLine
 10
-650.0
 20
-1330.0
 30
0.0
 11
140.0
 21
-1330.0
 31
0.0
  0
TEXT
  5
19C
330
17
100
AcDbEntity
  8
TABLAS
100
AcDbText
 10
-600.0
 20
-1362.5
 30
0.0
 40
30.0
  1
B2
  7
ING
 72
1
 11
-600.0
 21
-1362.5
 31
0.0
100
AcDbText
 73
2
  0
LINE
  5
19D
330
17
100
AcDbEntity
  8
ACERO
100
AcDbLine
 10
-490.0
 20
-1362.5
 30
0.0
 11
-440.0
 21
-1362.5
 31
0.0
  0
TEXT
  5
19E
330
17
100
AcDbEntity
  8
TABLAS
100
AcDbText
 10
-340.0
 20
-1362.5
 30
0.0
 40
30.0
  1
Ø8.0
  7
ING
 72
1
 11
-340.0
 21
-1362.5
 31
0.0
100
AcDbText
 73
2
  0
TEXT
  5
19F
330
17
100
AcDbEntity
  8
TABLAS
100
AcDbText
 10
-265.0
 20
-1362.5
 30
0.0
 40
30.0
  1
18
  7
ING
 72
1
 11
-265.0
 21
-1362.5
 31
0.0
100
AcDbText
 73
2
  0
TEXT
  5
1A0
330
17
100
AcDbEntity
  8
TABLAS
100
AcDbText
 10
-170.0
 20
-1362.5
 30
0.0
 40
30.0
  1
4.34
  7
ING
 72
1
 11
-170.0
 21
-1362.5
 31
0.0
100
AcDbText
 73
2
  0
TEXT
  5
1A1
330
17
100
AcDbEntity
  8
TABLAS
100
AcDbText
 10
-50.0
 20
-1362.5
 30
0.0
 40
30.0
  1
0.40
  7
ING
 72
1
 11
-50.0
 21
-1362.5
 31
0.0
100
AcDbText
 73
2
  0
TEXT
  5
1A2
330
17
100
AcDbEntity
  8
TABLAS
100
AcDbText
 10
75.0
 20
-1362.5
 30
0.0
 40
30.0
  1
30.86
  7
ING
 72
1
 11
75.0
 21
-1362.5
 31
0.0
100
AcDbText
 73
2
  0
LINE
  5
1A3
330
17
100
AcDbEntity
  8
TABLAS
100
AcDbLine
 10
-650.0
 20
-1395.0
 30
0.0
 11
140.0
 21
-1395.0
 31
0.0
  0
TEXT
  5
1A4
330
17
100
AcDbEntity
  8
TABLAS
100
AcDbText
 10
-600.0
 20
-1427.5
 30
0.0
 40
30.0
  1
B3
  7
ING
 72
1
 11
-600.0
 21
-1427.5
 31
0.0
100
AcDbText
 73
2
  0
LINE
  5
1A5
330
17
100
AcDbEntity
  8
ACERO
100
AcDbLine
 10
-397.0
 20
-1442.9545454545455
 30
0.0
 11
-397.0
 21
-1418.2272727272727
 31
0.0
  0
ARC
  5
1A6
330
17
100
AcDbEntity
  8
ACERO
100
AcDbCircle
 10
-403.1818181818182
 20
-1418.2272727272727
 30
0.0
 40
6.181818181818182
100
AcDbArc
 50
0.0
 51
90.0
  0
LINE
  5
1A7
330
17
100
AcDbEntity
  8
ACERO
100
AcDbLine
 10
-403.1818181818182
 20
-1412.0454545454545
 30
0.0
 11
-533.0
 21
-1412.0454545454545
 31
0.0
  0
TEXT
  5
1A8
330
17
100
AcDbEntity
  8
TABLAS
100
AcDbText
 10
-340.0
 20
-1427.5
 30
0.0
 40
30.0
  1
Ø10.0
  7
ING
 72
1
 11
-340.0
 21
-1427.5
 31
0.0
100
AcDbText
 73
2
  0
TEXT
  5
1A9
330
17
100
AcDbEntity
  8
TABLAS
100
AcDbText
 10
-265.0
 20
-1427.5
 30
0.0
 40
30.0
  1
2
  7
ING
 72
1
 11
-265.0
 21
-1427.5
 31
0.0
100
AcDbText
 73
2
  0
TEXT
  5
1AA
330
17
100
AcDbEntity
  8
TABLAS
100
AcDbText
 10
-170.0
 20
-1427.5
 30
0.0
 40
30.0
  1
0.80
  7
ING
 72
1
 11
-170.0
 21
-1427.5
 31
0.0
100
AcDbText
 73
2
  0
TEXT
  5
1AB
330
17
100
AcDbEntity
  8
TABLAS
100
AcDbText
 10
-50.0
 20
-1427.5
 30
0.0
 40
30.0
  1
0.62
  7
ING
 72
1
 11
-50.0
 21
-1427.5
 31
0.0
100
AcDbText
 73
2
  0
TEXT
  5
1AC
330
17
100
AcDbEntity
  8
TABLAS
100
AcDbText
 10
75.0
 20
-1427.5
 30
0.0
 40
30.0
  1
0.98
  7
ING
 72
1
 11
75.0
 21
-1427.5
 31
0.0
100
AcDbText
 73
2
  0
LINE
  5
1AD
330
17
100
AcDbEntity
  8
TABLAS
100
AcDbLine
 10
-650.0
 20
-1460.0
 30
0.0
 11
140.0
 21
-1460.0
 31
0.0
  0
TEXT
  5
1AE
330
17
100
AcDbEntity
  8
TABLAS
100
AcDbText
 10
75.0
 20
-1492.5
 30
0.0
 40
30.0
  1
Σ 117.1
  7
ING
 72
2
 11
75.0
 21
-1492.5
 31
0.0
100
AcDbText
 73
2
  0
TEXT
  5
1AF
330
17
100
AcDbEntity
  8
TEXTOS
100
AcDbText
 10
-650.0
 20
-1569.0
 30
0.0
 40
12.5
  1
CONCRETO f'c = 21 MPa  |  RECUBRIMIENTO r = 3.0 cm
  7
ING
 11
-650.0
 21
-1569.0
 31
0.0
100
AcDbText
 73
2
  0
TEXT
  5
1B0
330
17
100
AcDbEntity
  8
TEXTOS
100
AcDbText
 10
-650.0
 20
-1609.0
 30
0.0
 40
12.5
  1
LOSA e = 15.0 cm  |  APOYOS: 20.0 cm
  7
ING
 11
-650.0
 21
-1609.0
 31
0.0
100
AcDbText
 73
2
  0
TEXT
  5
1B1
330
17
100
AcDbEntity
  8
TEXTOS
100
AcDbText
 10
2000.0
 20
-1719.0
 30
0.0
 40
22.5
  1
LOSA 15.0 cm, LUZ 4.00 m  -  ESC 1:50
  7
ING
 72
1
 11
2000.0
 21
-1719.0
 31
0.0
100
AcDbText
 73
2
  0
ENDSEC
  0
SECTION
  2
OBJECTS
  0
DICTIONARY
  5
A
330
0
100
AcDbDictionary
281
1
  3
ACAD_COLOR
350
B
  3
ACAD_GROUP
350
C
  3
ACAD_LAYOUT
350
D
  3
ACAD_MATERIAL
350
E
  3
ACAD_MLEADERSTYLE
350
F
  3
ACAD_MLINESTYLE
350
10
  3
ACAD_PLOTSETTINGS
350
11
  3
ACAD_PLOTSTYLENAME
350
12
  3
ACAD_SCALELIST
350
14
  3
ACAD_TABLESTYLE
350
15
  3
ACAD_VISUALSTYLE
350
16
  3
EZDXF_META
350
2D
  0
DICTIONARY
  5
B
330
A
100
AcDbDictionary
281
1
  0
DICTIONARY
  5
C
330
A
100
AcDbDictionary
281
1
  0
DICTIONARY
  5
D
330
A
100
AcDbDictionary
281
1
  3
Model
350
1A
  3
Layout1
350
1E
  0
DICTIONARY
  5
E
330
A
100
AcDbDictionary
281
1
  3
ByBlock
350
1F
  3
ByLayer
350
20
  3
Global
350
21
  0
DICTIONARY
  5
F
330
A
100
AcDbDictionary
281
1
  3
Standard
350
2C
  0
DICTIONARY
  5
10
330
A
100
AcDbDictionary
281
1
  3
Standard
350
22
  0
DICTIONARY
  5
11
330
A
100
AcDbDictionary
281
1
  0
ACDBDICTIONARYWDFLT
  5
12
330
A
100
AcDbDictionary
281
1
  3
Normal
350
13
100
AcDbDictionaryWithDefault
340
13
  0
ACDBPLACEHOLDER
  5
13
330
12
  0
DICTIONARY
  5
14
330
A
100
AcDbDictionary
281
1
  0
DICTIONARY
  5
15
330
A
100
AcDbDictionary
281
1
  0
DICTIONARY
  5
16
330
A
100
AcDbDictionary
281
1
  3
2dWireframe
350
5A
  3
Basic
350
5B
  3
Brighten
350
5C
  3
ColorChange
350
5D
  3
Conceptual
350
5E
  3
Dim
350
5F
  3
EdgeColorOff
350
60
  3
Facepattern
350
61
  3
Flat
350
62
  3
FlatWithEdges
350
63
  3
Gouraud
350
64
  3
GouraudWithEdges
350
65
  3
Hidden
350
66
  3
JitterOff
350
67
  3
Linepattern
350
68
  3
Modeling
350
69
  3
OverhangOff
350
6A
  3
Realistic
350
6B
  3
Shaded
350
6C
  3
Shaded with edges
350
6D
  3
Shades of Gray
350
6E
  3
Sketchy
350
6F
  3
Thicken
350
70
  3
Wireframe
350
71
  3
X-Ray
350
72
  0
LAYOUT
  5
1A
330
D
100
AcDbPlotSettings
  1

  4
A3
  6

 40
7.5
 41
20.0
 42
7.5
 43
20.0
 44
420.0
 45
297.0
 46
0.0
 47
0.0
 48
0.0
 49
0.0
140
0.0
141
0.0
142
1.0
143
1.0
 70
1024
 72
1
 73
0
 74
5
  7

 75
16
 76
0
 77
2
 78
300
147
1.0
148
0.0
149
0.0
100
AcDbLayout
  1
Model
 70
1
 71
0
 10
0.0
 20
0.0
 11
420.0
 21
297.0
 12
0.0
 22
0.0
 32
0.0
 14
1e+20
 24
1e+20
 34
1e+20
 15
-1e+20
 25
-1e+20
 35
-1e+20
146
0.0
 13
0.0
 23
0.0
 33
0.0
 16
1.0
 26
0.0
 36
0.0
 17
0.0
 27
1.0
 37
0.0
 76
1
330
17
  0
LAYOUT
  5
1E
330
D
100
AcDbPlotSettings
  1

  4
A3
  6

 40
7.5
 41
20.0
 42
7.5
 43
20.0
 44
420.0
 45
297.0
 46
0.0
 47
0.0
 48
0.0
 49
0.0
140
0.0
141
0.0
142
1.0
143
1.0
 70
0
 72
1
 73
0
 74
5
  7

 75
16
 76
0
 77
2
 78
300
147
1.0
148
0.0
149
0.0
100
AcDbLayout
  1
Layout1
 70
1
 71
1
 10
0.0
 20
0.0
 11
420.0
 21
297.0
 12
0.0
 22
0.0
 32
0.0
 14
1e+20
 24
1e+20
 34
1e+20
 15
-1e+20
 25
-1e+20
 35
-1e+20
146
0.0
 13
0.0
 23
0.0
 33
0.0
 16
1.0
 26
0.0
 36
0.0
 17
0.0
 27
1.0
 37
0.0
 76
1
330
1B
  0
MATERIAL
  5
1F
102
{ACAD_REACTORS
330
E
102
}
330
E
100
AcDbMaterial
  1
ByBlock
  2

 70
0
 40
1.0
 71
1
 41
1.0
 91
-1023410177
 42
1.0
 72
1
  3

 73
1
 74
1
 75
1
 44
0.5
 73
0
 45
1.0
 46
1.0
 77
1
  4

 78
1
 79
1
170
1
 48
1.0
171
1
  6

172
1
173
1
174
1
140
1.0
141
1.0
175
1
  7

176
1
177
1
178
1
143
1.0
179
1
  8

270
1
271
1
272
1
145
1.0
146
1.0
273
1
  9

274
1
275
1
276
1
 42
1.0
 72
1
  3

 73
1
 74
1
 75
1
 94
63
  0
MATERIAL
  5
20
102
{ACAD_REACTORS
330
E
102
}
330
E
100
AcDbMaterial
  1
ByLayer
  2

 70
0
 40
1.0
 71
1
 41
1.0
 91
-1023410177
 42
1.0
 72
1
  3

 73
1
 74
1
 75
1
 44
0.5
 73
0
 45
1.0
 46
1.0
 77
1
  4

 78
1
 79
1
170
1
 48
1.0
171
1
  6

172
1
173
1
174
1
140
1.0
141
1.0
175
1
  7

176
1
177
1
178
1
143
1.0
179
1
  8

270
1
271
1
272
1
145
1.0
146
1.0
273
1
  9

274
1
275
1
276
1
 42
1.0
 72
1
  3

 73
1
 74
1
 75
1
 94
63
  0
MATERIAL
  5
21
102
{ACAD_REACTORS
330
E
102
}
330
E
100
AcDbMaterial
  1
Global
  2

 70
0
 40
1.0
 71
1
 41
1.0
 91
-1023410177
 42
1.0
 72
1
  3

 73
1
 74
1
 75
1
 44
0.5
 73
0
 45
1.0
 46
1.0
 77
1
  4

 78
1
 79
1
170
1
 48
1.0
171
1
  6

172
1
173
1
174
1
140
1.0
141
1.0
175
1
  7

176
1
177
1
178
1
143
1.0
179
1
  8

270
1
271
1
272
1
145
1.0
146
1.0
273
1
  9

274
1
275
1
276
1
 42
1.0
 72
1
  3

 73
1
 74
1
 75
1
 94
63
  0
MLINESTYLE
  5
22
102
{ACAD_REACTORS
330
10
102
}
330
10
100
AcDbMlineStyle
  2
Standard
 70
0
  3

 62
256
 51
90.0
 52
90.0
 71
2
 49
0.5
 62
256
  6
BYLAYER
 49
-0.5
 62
256
  6
BYLAYER
  0
MLEADERSTYLE
  5
2C
102
{ACAD_REACTORS
330
F
102
}
330
F
100
AcDbMLeaderStyle
179
2
170
2
171
1
172
0
 90
2
 40
0.0
 41
0.0
173
1
 91
-1056964608
 92
-2
290
1
 42
2.0
291
1
 43
8.0
  3
Standard
 44
4.0
300

342
29
174
1
175
1
176
0
178
1
 93
-1056964608
 45
4.0
292
0
297
0
 46
4.0
 94
-1056964608
 47
1.0
 49
1.0
140
1.0
294
1
141
0.0
177
0
142
1.0
295
0
296
0
143
3.75
271
0
272
9
273
9
  0
DICTIONARY
  5
2D
330
A
100
AcDbDictionary
280
1
281
1
  3
CREATED_BY_EZDXF
350
2E
  3
WRITTEN_BY_EZDXF
350
1B4
  0
DICTIONARYVAR
  5
2E
330
2D
100
DictionaryVariables
280
0
  1
1.4.3 @ 2026-09-02T16:27:50.708120+00:00
  0
VISUALSTYLE
  5
5A
102
{ACAD_REACTORS
330
16
102
}
330
16
100
AcDbVisualStyle
  2
2dWireframe
 70
4
 90
0
 40
0.6
 62
7
290
0
291
0
  0
VISUALSTYLE
  5
5B
102
{ACAD_REACTORS
330
16
102
}
330
16
100
AcDbVisualStyle
  2
Basic
 70
7
 90
1
 40
0.6
 62
7
290
0
291
1
  0
VISUALSTYLE
  5
5C
102
{ACAD_REACTORS
330
16
102
}
330
16
100
AcDbVisualStyle
  2
Brighten
 70
12
 90
2
 40
0.6
 62
7
290
0
291
1
  0
VISUALSTYLE
  5
5D
102
{ACAD_REACTORS
330
16
102
}
330
16
100
AcDbVisualStyle
  2
ColorChange
 70
16
 90
2
 40
0.6
 62
8
290
0
291
1
  0
VISUALSTYLE
  5
5E
102
{ACAD_REACTORS
330
16
102
}
330
16
100
AcDbVisualStyle
  2
Conceptual
 70
9
 90
3
 40
0.6
 62
7
290
0
291
0
  0
VISUALSTYLE
  5
5F
102
{ACAD_REACTORS
330
16
102
}
330
16
100
AcDbVisualStyle
  2
Dim
 70
11
 90
2
 40
0.6
 62
7
290
0
291
1
  0
VISUALSTYLE
  5
60
102
{ACAD_REACTORS
330
16
102
}
330
16
100
AcDbVisualStyle
  2
EdgeColorOff
 70
22
 90
2
 40
0.6
 62
7
290
0
291
1
  0
VISUALSTYLE
  5
61
102
{ACAD_REACTORS
330
16
102
}
330
16
100
AcDbVisualStyle
  2
Facepattern
 70
15
 90
2
 40
0.6
 62
7
290
0
291
1
  0
VISUALSTYLE
  5
62
102
{ACAD_REACTORS
330
16
102
}
330
16
100
AcDbVisualStyle
  2
Flat
 70
0
 90
2
 40
0.6
 62
7
290
0
291
1
  0
VISUALSTYLE
  5
63
102
{ACAD_REACTORS
330
16
102
}
330
16
100
AcDbVisualStyle
  2
FlatWithEdges
 70
1
 90
2
 40
0.6
 62
7
290
0
291
1
  0
VISUALSTYLE
  5
64
102
{ACAD_REACTORS
330
16
102
}
330
16
100
AcDbVisualStyle
  2
Gouraud
 70
2
 90
2
 40
0.6
 62
7
290
0
291
1
  0
VISUALSTYLE
  5
65
102
{ACAD_REACTORS
330
16
102
}
330
16
100
AcDbVisualStyle
  2
GouraudWithEdges
 70
3
 90
2
 40
0.6
 62
7
290
0
291
1
  0
VISUALSTYLE
  5
66
102
{ACAD_REACTORS
330
16
102
}
330
16
100
AcDbVisualStyle
  2
Hidden
 70
6
 90
1
 40
0.6
 62
7
290
0
291
0
  0
VISUALSTYLE
  5
67
102
{ACAD_REACTORS
330
16
102
}
330
16
100
AcDbVisualStyle
  2
JitterOff
 70
20
 90
2
 40
0.6
 62
7
290
0
291
1
  0
VISUALSTYLE
  5
68
102
{ACAD_REACTORS
330
16
102
}
330
16
100
AcDbVisualStyle
  2
Linepattern
 70
14
 90
2
 40
0.6
 62
7
290
0
291
1
  0
VISUALSTYLE
  5
69
102
{ACAD_REACTORS
330
16
102
}
330
16
100
AcDbVisualStyle
  2
Modeling
 70
10
 90
2
 40
0.6
 62
7
290
0
291
0
  0
VISUALSTYLE
  5
6A
102
{ACAD_REACTORS
330
16
102
}
330
16
100
AcDbVisualStyle
  2
OverhangOff
 70
21
 90
2
 40
0.6
 62
7
290
0
291
1
  0
VISUALSTYLE
  5
6B
102
{ACAD_REACTORS
330
16
102
}
330
16
100
AcDbVisualStyle
  2
Realistic
 70
8
 90
2
 40
0.6
 62
7
290
0
291
0
  0
VISUALSTYLE
  5
6C
102
{ACAD_REACTORS
330
16
102
}
330
16
100
AcDbVisualStyle
  2
Shaded
 70
27
 90
2
 40
0.6
 62
7
290
0
291
0
  0
VISUALSTYLE
  5
6D
102
{ACAD_REACTORS
330
16
102
}
330
16
100
AcDbVisualStyle
  2
Shaded with edges
 70
26
 90
2
 40
0.6
 62
7
290
0
291
0
  0
VISUALSTYLE
  5
6E
102
{ACAD_REACTORS
330
16
102
}
330
16
100
AcDbVisualStyle
  2
Shades of Gray
 70
23
 90
2
 40
0.6
 62
7
290
0
291
0
  0
VISUALSTYLE
  5
6F
102
{ACAD_REACTORS
330
16
102
}
330
16
100
AcDbVisualStyle
  2
Sketchy
 70
24
 90
1
 40
0.6
 62
7
290
0
291
0
  0
VISUALSTYLE
  5
70
102
{ACAD_REACTORS
330
16
102
}
330
16
100
AcDbVisualStyle
  2
Thicken
 70
13
 90
2
 40
0.6
 62
7
290
0
291
1
  0
VISUALSTYLE
  5
71
102
{ACAD_REACTORS
330
16
102
}
330
16
100
AcDbVisualStyle
  2
Wireframe
 70
5
 90
0
 40
0.6
 62
7
290
0
291
0
  0
VISUALSTYLE
  5
72
102
{ACAD_REACTORS
330
16
102
}
330
16
100
AcDbVisualStyle
  2
X-Ray
 70
25
 90
2
 40
0.5
 62
7
290
0
291
0
  0
DICTIONARYVAR
  5
1B4
330
2D
100
DictionaryVariables
280
0
  1
1.4.3 @ 2026-09-02T16:27:50.720426+00:00
  0
ENDSEC
  0
EOF
